<svg width="24" height="28" viewBox="0 0 24 28" fill="none" xmlns="http://www.w3.org/2000/svg">
<g clip-path="url(#clip0_171_1930)">
<path d="M23.5049 6.88483H9.50976C9.05407 6.88483 8.79469 7.23715 8.92983 7.67245L11.1438 14.1579C11.2529 14.5078 11.6389 14.7914 12.0054 14.7914H21.1809C21.5475 14.7914 21.933 14.5078 22.0411 14.1579L23.9705 7.51929C24.0806 7.16886 23.8724 6.88483 23.5049 6.88483Z" fill="#3F3F3F"/>
<path d="M10.7752 24.3563C11.9314 24.3563 12.8687 23.4189 12.8687 22.2627C12.8687 21.1065 11.9314 20.1692 10.7752 20.1692C9.61895 20.1692 8.68164 21.1065 8.68164 22.2627C8.68164 23.4189 9.61895 24.3563 10.7752 24.3563Z" fill="#3F3F3F"/>
<path d="M19.6345 24.3823C20.7908 24.3823 21.7281 23.445 21.7281 22.2888C21.7281 21.1326 20.7908 20.1953 19.6345 20.1953C18.4783 20.1953 17.541 21.1326 17.541 22.2888C17.541 23.445 18.4783 24.3823 19.6345 24.3823Z" fill="#3F3F3F"/>
<path d="M22.1478 16.922H9.90386L5.00219 2.81775H1.18547C0.871061 2.81775 0.569533 2.94265 0.347215 3.16496C0.124897 3.38728 0 3.68881 0 4.00322C0 4.31762 0.124897 4.61915 0.347215 4.84147C0.569533 5.06378 0.871061 5.18868 1.18547 5.18868H3.31599L8.21765 19.2929H22.1478C22.4622 19.2929 22.7638 19.168 22.9861 18.9457C23.2084 18.7234 23.3333 18.4218 23.3333 18.1074C23.3333 17.793 23.2084 17.4915 22.9861 17.2692C22.7638 17.0468 22.4622 16.922 22.1478 16.922Z" fill="#3F3F3F"/>
</g>
<defs>
<clipPath id="clip0_171_1930">
<rect width="24" height="24" fill="white" transform="translate(0 1.60001)"/>
</clipPath>
</defs>
</svg>
