<svg width="20" height="17" viewBox="0 0 20 17" fill="none" xmlns="http://www.w3.org/2000/svg">
<path d="M18.75 3H1.25C0.541667 3 0 2.35 0 1.5C0 0.65 0.541667 0 1.25 0H18.75C19.4583 0 20 0.65 20 1.5C20 2.35 19.4583 3 18.75 3ZM18.75 10H1.25C0.541667 10 0 9.35 0 8.5C0 7.65 0.541667 7 1.25 7H18.75C19.4583 7 20 7.65 20 8.5C20 9.35 19.4583 10 18.75 10ZM18.75 17H1.25C0.541667 17 0 16.35 0 15.5C0 14.65 0.541667 14 1.25 14H18.75C19.4583 14 20 14.65 20 15.5C20 16.35 19.4583 17 18.75 17Z" fill="#3F3F3F"/>
</svg>
