<svg width="96" height="88" viewBox="0 0 96 88" fill="none" xmlns="http://www.w3.org/2000/svg">
<path d="M17.8612 87.8665C14.9067 87.8665 12.1673 85.9511 11.2615 82.9826L0.800772 48.6947C-0.308729 45.0577 1.74764 41.1966 5.38424 40.0871L21.3767 35.2082V6.60825C21.3767 3.03806 24.2814 0.133301 27.8516 0.133301H89.0251C92.5952 0.133301 95.5 3.03806 95.5 6.60825V43.2972C95.5 46.8674 92.5952 49.7722 89.0251 49.7722H78.6262L82.1593 61.3523C82.426 62.2181 82.5183 63.1282 82.4309 64.0298C82.3436 64.9315 82.0782 65.8069 81.6502 66.6053C81.2267 67.4061 80.6485 68.115 79.9491 68.6908C79.2497 69.2667 78.4431 69.6981 77.5759 69.96L19.8692 87.5657C19.2184 87.7648 18.5417 87.8662 17.8612 87.8665ZM7.46862 61.2611L13.8541 82.1916C14.5277 84.3984 16.8709 85.6475 19.0782 84.9731L76.7849 67.3674C78.9921 66.6939 80.2399 64.3506 79.5663 62.1438L75.8669 50.017H67.5221L68.8236 54.2639C68.9287 54.6075 68.893 54.9788 68.7246 55.2962C68.5561 55.6135 68.2686 55.8511 67.9251 55.9566L19.5873 70.7696C19.2437 70.8748 18.8723 70.8393 18.5549 70.6708C18.2374 70.5023 17.9999 70.2146 17.8946 69.871L16.3505 64.8317C16.2455 64.4881 16.2811 64.1169 16.4496 63.7995C16.618 63.4821 16.9056 63.2446 17.249 63.139L60.0687 50.0166H44.1282L7.46862 61.2611ZM19.3388 65.3332L20.0887 67.7808L65.8353 53.7616L65.0854 51.314L19.3388 65.3332ZM4.03486 50.0062L6.6776 58.6685L34.8849 50.0166H28.2718C27.3619 50.0171 26.4609 49.837 25.6212 49.4867C24.7814 49.1365 24.0195 48.623 23.3797 47.976C22.448 47.0871 21.8025 45.9404 21.5258 44.6827L4.03486 50.0062ZM21.3762 38.0415L6.1748 42.6797C4.13334 43.3022 2.91271 45.3536 3.27366 47.4045L21.3762 41.895V38.0415ZM25.2771 46.0421C25.9738 46.6977 26.8945 47.0626 27.8512 47.0621H89.0251C91.1009 47.0621 92.7895 45.3735 92.7895 43.2977V6.60825C92.7895 4.53245 91.1009 2.84381 89.0251 2.84381H27.8516C25.7758 2.84381 24.0872 4.53245 24.0872 6.60825V43.121C24.0862 44.2129 24.5134 45.2617 25.2771 46.0421ZM87.5008 35.9721H78.0141C77.6546 35.9721 77.3099 35.8293 77.0558 35.5751C76.8016 35.321 76.6588 34.9763 76.6588 34.6168C76.6588 34.2574 76.8016 33.9127 77.0558 33.6585C77.3099 33.4044 77.6546 33.2616 78.0141 33.2616H87.5008C87.8603 33.2616 88.205 33.4044 88.4592 33.6585C88.7133 33.9127 88.8561 34.2574 88.8561 34.6168C88.8561 34.9763 88.7133 35.321 88.4592 35.5751C88.205 35.8293 87.8603 35.9721 87.5008 35.9721ZM71.3882 35.9721H61.9015C61.542 35.9721 61.1973 35.8293 60.9432 35.5751C60.689 35.321 60.5462 34.9763 60.5462 34.6168C60.5462 34.2574 60.689 33.9127 60.9432 33.6585C61.1973 33.4044 61.542 33.2616 61.9015 33.2616H71.3882C71.7477 33.2616 72.0924 33.4044 72.3465 33.6585C72.6007 33.9127 72.7435 34.2574 72.7435 34.6168C72.7435 34.9763 72.6007 35.321 72.3465 35.5751C72.0924 35.8293 71.7477 35.9721 71.3882 35.9721ZM55.2761 35.9721H45.7893C45.4299 35.9721 45.0852 35.8293 44.831 35.5751C44.5768 35.321 44.4341 34.9763 44.4341 34.6168C44.4341 34.2574 44.5768 33.9127 44.831 33.6585C45.0852 33.4044 45.4299 33.2616 45.7893 33.2616H55.2761C55.6355 33.2616 55.9802 33.4044 56.2344 33.6585C56.4886 33.9127 56.6313 34.2574 56.6313 34.6168C56.6313 34.9763 56.4886 35.321 56.2344 35.5751C55.9802 35.8293 55.6355 35.9721 55.2761 35.9721ZM39.1635 35.9721H29.6767C29.3173 35.9721 28.9726 35.8293 28.7184 35.5751C28.4642 35.321 28.3214 34.9763 28.3214 34.6168C28.3214 34.2574 28.4642 33.9127 28.7184 33.6585C28.9726 33.4044 29.3173 33.2616 29.6767 33.2616H39.1635C39.5229 33.2616 39.8676 33.4044 40.1218 33.6585C40.3759 33.9127 40.5187 34.2574 40.5187 34.6168C40.5187 34.9763 40.3759 35.321 40.1218 35.5751C39.8676 35.8293 39.5229 35.9721 39.1635 35.9721ZM36.9138 26.3082H31.9264C29.9387 26.3082 28.3214 24.6909 28.3214 22.7032V18.619C28.3214 16.6313 29.9387 15.0144 31.9264 15.0144H36.9142C38.9019 15.0144 40.5187 16.6317 40.5187 18.619V22.7032C40.5187 24.6909 38.9015 26.3082 36.9138 26.3082ZM31.9264 17.7249C31.4331 17.7249 31.032 18.1261 31.032 18.619V22.7032C31.032 23.1966 31.4331 23.5977 31.9264 23.5977H36.9142C37.1513 23.5973 37.3785 23.503 37.5461 23.3353C37.7137 23.1676 37.808 22.9403 37.8082 22.7032V18.619C37.8079 18.382 37.7136 18.1548 37.546 17.9872C37.3784 17.8196 37.1512 17.7253 36.9142 17.7249H31.9264Z" fill="#3F3F3F"/>
</svg>
