<svg width="20" height="20" viewBox="0 0 20 20" fill="none" xmlns="http://www.w3.org/2000/svg">
<path d="M16.9121 5.48273L16.9124 5.48273C17.1374 5.48171 17.353 5.39186 17.5121 5.23271C17.6713 5.07357 17.7611 4.85802 17.7621 4.63295V4.63273V3.47636L17.7621 3.47614C17.7611 3.25108 17.6713 3.03552 17.5121 2.87638C17.353 2.71724 17.1374 2.62738 16.9124 2.62636H16.9121L3.09395 2.62636L3.09372 2.62637C2.86866 2.62738 2.65311 2.71724 2.49396 2.87638C2.33482 3.03552 2.24496 3.25108 2.24395 3.47614H2.24395V3.47636L2.24394 4.63273L2.24395 4.63295C2.24496 4.85802 2.33482 5.07357 2.49396 5.23271C2.65311 5.39186 2.86866 5.48171 3.09372 5.48273H3.09395L16.9121 5.48273ZM2.94931 3.33173C2.98767 3.29337 3.0397 3.27182 3.09395 3.27182H16.9121C16.939 3.27182 16.9656 3.27711 16.9904 3.28739C17.0152 3.29767 17.0378 3.31274 17.0568 3.33173C17.0758 3.35072 17.0908 3.37327 17.1011 3.39809C17.1114 3.4229 17.1167 3.4495 17.1167 3.47636V4.63273C17.1167 4.65959 17.1114 4.68619 17.1011 4.711C17.0908 4.73582 17.0758 4.75837 17.0568 4.77736C17.0378 4.79636 17.0152 4.81142 16.9904 4.8217C16.9656 4.83198 16.939 4.83727 16.9121 4.83727H3.09395C3.0397 4.83727 2.98767 4.81572 2.94931 4.77736C2.91095 4.739 2.8894 4.68698 2.8894 4.63273V3.47636C2.8894 3.42212 2.91095 3.37009 2.94931 3.33173Z" fill="#3F3F3F" stroke="#3F3F3F" stroke-width="0.1"/>
<path d="M3.23555 4.9403L3.23559 4.94034C3.2659 4.90803 3.30248 4.88223 3.34308 4.86451L3.36308 4.91033L3.34308 4.86451C3.38369 4.84679 3.42748 4.83752 3.47178 4.83727L3.47206 4.83727L16.523 4.83727H16.5232C16.5675 4.83752 16.6113 4.84679 16.6519 4.86451C16.6925 4.88223 16.7291 4.90803 16.7594 4.94034L16.7604 4.94141L16.7604 4.94142C16.7902 4.97512 16.8128 5.01455 16.8268 5.0573C16.8408 5.10004 16.8459 5.1452 16.8419 5.19L16.8418 5.19014L15.6564 17.7752C15.6564 17.7753 15.6564 17.7754 15.6564 17.7755C15.6261 18.1242 15.4658 18.4488 15.2074 18.6848C14.9489 18.921 14.6111 19.0513 14.261 19.05M3.23555 4.9403L14.2611 19M3.23555 4.9403L3.23402 4.9421C3.20498 4.97613 3.18317 5.01572 3.16991 5.05845C3.15667 5.1011 3.15223 5.14599 3.15685 5.1904M3.23555 4.9403L3.15688 5.19067M14.261 19.05L14.2611 19M14.261 19.05H14.2611V19M14.261 19.05H5.7377M14.2611 19H5.73751M5.7377 19.05L5.73751 19M5.7377 19.05H5.73751V19M5.7377 19.05C5.38759 19.0513 5.04979 18.921 4.7913 18.6848C4.53285 18.4487 4.37258 18.1241 4.34226 17.7754C4.34226 17.7754 4.34225 17.7753 4.34225 17.7752L4.39206 17.7709L5.73751 19M3.15688 5.19067L3.2066 5.18545L3.15682 5.19014L3.15685 5.1904M3.15688 5.19067C3.15687 5.19058 3.15686 5.19049 3.15685 5.1904M3.15688 5.19067L3.15685 5.1904M12.9811 3.27215V3.27182H7.01751H7.01729C6.9588 3.27156 6.90148 3.25541 6.85145 3.22509C6.80176 3.19497 6.76112 3.15199 6.73383 3.10071C6.70475 3.05082 6.68943 2.99411 6.68943 2.93636C6.68943 2.87823 6.70495 2.82116 6.7344 2.77103L6.73613 2.76809L6.73623 2.76816L7.63802 1.4482L12.9811 3.27215ZM12.9811 3.27215L12.9869 3.27149M12.9811 3.27215L12.9869 3.27149M12.9869 3.27149C13.0394 3.26543 13.0896 3.24657 13.1331 3.21656C13.1763 3.1868 13.2115 3.14698 13.2358 3.10055M12.9869 3.27149L8.57356 0.950001M8.57356 0.950001L8.57388 0.949999L11.3957 0.95H11.396V0.950001C11.5806 0.951154 11.7622 0.997089 11.9251 1.08386C12.0881 1.17064 12.2276 1.29566 12.3316 1.4482L13.2333 2.76816L13.2353 2.77098L13.2352 2.77103C13.2646 2.82116 13.2801 2.87823 13.2801 2.93636C13.2801 2.99405 13.2648 3.05071 13.2358 3.10055M8.57356 0.950001C8.38895 0.951154 8.20738 0.997089 8.04443 1.08386C7.88149 1.17063 7.74204 1.29564 7.63805 1.44816L8.57356 0.950001ZM13.2358 3.10055C13.236 3.10016 13.2362 3.09976 13.2365 3.09937L13.1921 3.07636L13.2352 3.10169C13.2354 3.10131 13.2356 3.10093 13.2358 3.10055ZM12.3701 2.62636H7.62193L8.18592 1.81024L8.18592 1.81025L8.18639 1.80956C8.23047 1.74345 8.29024 1.68929 8.36037 1.65193C8.43049 1.61457 8.50878 1.59517 8.58824 1.59545H8.58842L11.4102 1.59545L11.4104 1.59545C11.4899 1.59517 11.5682 1.61457 11.6383 1.65193C11.7084 1.68929 11.7682 1.74345 11.8123 1.80956L11.8126 1.81002L12.3701 2.62636ZM4.98363 17.715L3.83244 5.48273H16.1662L15.015 17.715C15.015 17.7151 15.015 17.7151 15.015 17.7151C14.9964 17.9021 14.9089 18.0754 14.7696 18.2015C14.6303 18.3276 14.4491 18.3974 14.2612 18.3973H5.73751C5.54959 18.3974 5.36837 18.3276 5.22904 18.2015C5.08975 18.0754 5.00229 17.9021 4.98364 17.7152C4.98364 17.7151 4.98363 17.7151 4.98363 17.715Z" fill="#3F3F3F" stroke="#3F3F3F" stroke-width="0.1"/>
<path d="M7.31149 17.0282L7.31149 17.0286L7.31808 17.0278L7.34606 17.0243C7.34625 17.0243 7.34645 17.0242 7.34665 17.0242C7.43138 17.0154 7.5092 16.9734 7.56311 16.9074C7.61716 16.8413 7.64277 16.7564 7.63436 16.6714L7.63434 16.6712L6.64161 7.10756L6.64168 7.10756L6.64125 7.10487C6.62831 7.02351 6.58475 6.95017 6.51948 6.89989C6.45421 6.84962 6.37218 6.8262 6.29021 6.83446C6.20823 6.84271 6.13252 6.882 6.07858 6.94428C6.02464 7.00656 5.99656 7.08711 6.0001 7.16942L6.00001 7.16942L6.00032 7.17243L6.99305 16.7397L6.99307 16.7399C7.00152 16.8186 7.03863 16.8915 7.09735 16.9447C7.15607 16.9979 7.23229 17.0276 7.31149 17.0282ZM9.67642 16.7055L9.67642 16.7061C9.67754 16.7912 9.71183 16.8725 9.77199 16.9326C9.83215 16.9928 9.91342 17.0271 9.99849 17.0282L9.9998 17.0282C10.0849 17.0271 10.1661 16.9928 10.2263 16.9326C10.2865 16.8725 10.3208 16.7912 10.3219 16.7061V16.7055V7.13818C10.3219 7.05259 10.2879 6.9705 10.2274 6.90998C10.1668 6.84946 10.0847 6.81545 9.99915 6.81545C9.91355 6.81545 9.83147 6.84946 9.77094 6.90998C9.71042 6.9705 9.67642 7.05259 9.67642 7.13818L9.67642 16.7055ZM12.6864 17.0282L12.6869 17.0282C12.7675 17.0274 12.8448 16.9964 12.9037 16.9415C12.9625 16.8867 12.9987 16.8119 13.0053 16.7319C13.0053 16.7317 13.0053 16.7315 13.0054 16.7313L13.9978 7.17737C14.0045 7.13442 14.0024 7.09056 13.9916 7.04844C13.9808 7.00586 13.9614 6.96594 13.9346 6.93113C13.9078 6.89632 13.8741 6.86735 13.8357 6.846C13.7973 6.82465 13.7549 6.81137 13.7112 6.80697C13.6675 6.80257 13.6233 6.80714 13.5815 6.82041C13.5396 6.83367 13.5008 6.85536 13.4676 6.88412C13.4344 6.91289 13.4074 6.94813 13.3883 6.9877C13.3694 7.02679 13.3586 7.06929 13.3565 7.11264L12.364 16.6748L12.3639 16.6751C12.3555 16.7601 12.3811 16.8449 12.4352 16.9111C12.4892 16.9772 12.5673 17.0192 12.6522 17.0279L12.6522 17.0282H12.6573L12.6864 17.0282Z" fill="#3F3F3F" stroke="#3F3F3F" stroke-width="0.1"/>
</svg>
