<svg width="40" height="22" viewBox="0 0 40 22" fill="none" xmlns="http://www.w3.org/2000/svg">
<path d="M31.5217 4.91359C31.4821 4.83756 31.4224 4.77385 31.3491 4.72939C31.2758 4.68492 31.1917 4.66141 31.106 4.66141H26.5625C26.4382 4.66141 26.319 4.71079 26.231 4.7987C26.1431 4.88661 26.0938 5.00584 26.0938 5.13016V9.275C26.0938 9.39932 26.1431 9.51855 26.231 9.60646C26.319 9.69436 26.4382 9.74375 26.5625 9.74375H33.2656C33.3462 9.74375 33.4254 9.72299 33.4956 9.68346C33.5658 9.64394 33.6247 9.58698 33.6664 9.51809C33.7082 9.4492 33.7315 9.3707 33.7341 9.29018C33.7368 9.20965 33.7186 9.12981 33.6813 9.05836L31.5217 4.91359ZM27.0312 8.80625V5.59891H30.822L32.4928 8.80625H27.0312ZM28.2802 11.3451H26.5938C26.4694 11.3451 26.3502 11.3945 26.2623 11.4824C26.1744 11.5703 26.125 11.6895 26.125 11.8138C26.125 11.9381 26.1744 12.0574 26.2623 12.1453C26.3502 12.2332 26.4694 12.2826 26.5938 12.2826H28.2798C28.4042 12.2826 28.5234 12.2332 28.6113 12.1453C28.6992 12.0574 28.7486 11.9381 28.7486 11.8138C28.7486 11.6895 28.6992 11.5703 28.6113 11.4824C28.5234 11.3945 28.4042 11.3451 28.2798 11.3451H28.2802ZM3.07812 4.43063C2.9538 4.43063 2.83458 4.48001 2.74667 4.56792C2.65876 4.65583 2.60938 4.77506 2.60938 4.89938V9.29586C2.60938 9.42018 2.65876 9.53941 2.74667 9.62732C2.83458 9.71522 2.9538 9.76461 3.07812 9.76461C3.20245 9.76461 3.32167 9.71522 3.40958 9.62732C3.49749 9.53941 3.54688 9.42018 3.54688 9.29586V4.89938C3.54688 4.77506 3.49749 4.65583 3.40958 4.56792C3.32167 4.48001 3.20245 4.43063 3.07812 4.43063ZM3.54688 2.00781C3.54688 1.88349 3.49749 1.76426 3.40958 1.67636C3.32167 1.58845 3.20245 1.53906 3.07812 1.53906C2.9538 1.53906 2.83458 1.58845 2.74667 1.67636C2.65876 1.76426 2.60938 1.88349 2.60938 2.00781V2.75C2.60938 2.87432 2.65876 2.99355 2.74667 3.08146C2.83458 3.16936 2.9538 3.21875 3.07812 3.21875C3.20245 3.21875 3.32167 3.16936 3.40958 3.08146C3.49749 2.99355 3.54688 2.87432 3.54688 2.75V2.00781Z" fill="black"/>
<path d="M37.4576 8.98609C37.3041 8.98666 37.1536 8.94408 37.0231 8.86322C36.8927 8.78235 36.7876 8.66646 36.7198 8.52875L33.9 2.84906C33.7804 2.61522 33.5985 2.41902 33.3743 2.28221C33.1501 2.1454 32.8924 2.0733 32.6298 2.07391H24.1884V1.05188C24.1884 0.776527 24.079 0.512455 23.8843 0.317755C23.6896 0.123054 23.4255 0.0136719 23.1502 0.0136719H19.7937C19.6694 0.0136719 19.5501 0.0630575 19.4622 0.150965C19.3743 0.238873 19.3249 0.358102 19.3249 0.482422C19.3249 0.606742 19.3743 0.72597 19.4622 0.813878C19.5501 0.901786 19.6694 0.951172 19.7937 0.951172H23.1501C23.1633 0.951172 23.1764 0.953779 23.1886 0.958844C23.2009 0.963908 23.212 0.971331 23.2213 0.98069C23.2307 0.990048 23.2381 1.00116 23.2432 1.01339C23.2483 1.02561 23.2509 1.03872 23.2509 1.05195V12.3705H1.71875V1.05188C1.71875 1.02517 1.72936 0.999553 1.74825 0.980667C1.76713 0.961782 1.79274 0.951172 1.81945 0.951172H15.8874C16.0117 0.951172 16.131 0.901786 16.2189 0.813878C16.3068 0.72597 16.3562 0.606742 16.3562 0.482422C16.3562 0.358102 16.3068 0.238873 16.2189 0.150965C16.131 0.0630575 16.0117 0.0136719 15.8874 0.0136719H1.81953C1.54416 0.0136719 1.28007 0.123062 1.08536 0.317777C0.89064 0.512493 0.78125 0.776583 0.78125 1.05195V18.0676C0.78125 18.1919 0.830636 18.3111 0.918544 18.399C1.00645 18.4869 1.12568 18.5363 1.25 18.5363H3.18437C3.29873 19.4875 3.75768 20.3639 4.47443 20.9996C5.19117 21.6354 6.11603 21.9864 7.0741 21.9864C8.03217 21.9864 8.95703 21.6354 9.67378 20.9996C10.3905 20.3639 10.8495 19.4875 10.9638 18.5363H27.8711C27.9855 19.4875 28.4445 20.3638 29.1613 20.9995C29.878 21.6352 30.8028 21.9862 31.7609 21.9862C32.7189 21.9862 33.6437 21.6352 34.3605 20.9995C35.0772 20.3638 35.5362 19.4875 35.6506 18.5363H37.516C37.9675 18.5362 38.4005 18.3568 38.7198 18.0376C39.0391 17.7184 39.2186 17.2854 39.2188 16.8339V10.7473C39.2182 10.2803 39.0325 9.83267 38.7023 9.5025C38.3722 9.17233 37.9245 8.98661 37.4576 8.98609ZM7.07406 21.0491C6.48443 21.0491 5.90804 20.8743 5.41779 20.5467C4.92754 20.2191 4.54543 19.7535 4.3198 19.2087C4.09417 18.664 4.03514 18.0645 4.15018 17.4862C4.26523 16.9079 4.54917 16.3767 4.96611 15.9598C5.38304 15.5429 5.91425 15.2589 6.49256 15.1439C7.07086 15.0289 7.67029 15.0879 8.21503 15.3136C8.75978 15.5392 9.22538 15.9213 9.55296 16.4116C9.88054 16.9019 10.0554 17.4783 10.0554 18.0679C10.0546 18.8583 9.74019 19.6162 9.18126 20.1751C8.62233 20.734 7.8645 21.0483 7.07406 21.0491ZM23.2509 17.5991H10.9638C10.8495 16.6479 10.3905 15.7716 9.67378 15.1358C8.95703 14.5001 8.03217 14.149 7.0741 14.149C6.11603 14.149 5.19117 14.5001 4.47443 15.1358C3.75768 15.7716 3.29873 16.6479 3.18437 17.5991H1.71875V13.308H23.2509V17.5991ZM31.7609 21.0491C31.1712 21.0491 30.5948 20.8743 30.1046 20.5467C29.6143 20.2191 29.2322 19.7535 29.0065 19.2088C28.7809 18.664 28.7219 18.0646 28.8369 17.4863C28.9519 16.908 29.2359 16.3768 29.6528 15.9598C30.0697 15.5429 30.6009 15.259 31.1792 15.1439C31.7576 15.0289 32.357 15.0879 32.9017 15.3136C33.4465 15.5392 33.9121 15.9213 34.2397 16.4116C34.5673 16.9019 34.7421 17.4783 34.7421 18.0679C34.7413 18.8583 34.4269 19.6161 33.868 20.175C33.3091 20.734 32.5513 21.0483 31.7609 21.0491ZM38.2812 15.532H37.1893V13.4748H38.2812V15.532ZM38.2812 12.5373H36.7205C36.5962 12.5373 36.477 12.5867 36.3891 12.6746C36.3012 12.7625 36.2518 12.8818 36.2518 13.0061V16.0007C36.2518 16.125 36.3012 16.2443 36.3891 16.3322C36.477 16.4201 36.5962 16.4695 36.7205 16.4695H38.2812V16.834C38.2812 17.0369 38.2006 17.2315 38.0571 17.375C37.9136 17.5185 37.719 17.5991 37.5161 17.5991H35.6506C35.5362 16.648 35.0772 15.7717 34.3605 15.136C33.6437 14.5003 32.7189 14.1493 31.7609 14.1493C30.8028 14.1493 29.878 14.5003 29.1613 15.136C28.4445 15.7717 27.9855 16.648 27.8711 17.5991H24.1884V3.01156H32.6298C32.719 3.01108 32.8066 3.03512 32.883 3.08106C32.9595 3.12699 33.0218 3.19306 33.0633 3.27203L35.8802 8.94547C36.0298 9.2391 36.2575 9.48576 36.5383 9.65832C36.8191 9.83087 37.142 9.92264 37.4716 9.92352C37.6875 9.92744 37.8933 10.0159 38.0447 10.17C38.1961 10.324 38.281 10.5313 38.2812 10.7473V12.5373Z" fill="black"/>
<path d="M7.07422 16.3843C6.74123 16.3843 6.41572 16.483 6.13886 16.668C5.86199 16.853 5.6462 17.116 5.51877 17.4236C5.39135 17.7312 5.35801 18.0698 5.42298 18.3964C5.48795 18.7229 5.6483 19.0229 5.88377 19.2584C6.11923 19.4938 6.41922 19.6542 6.74581 19.7191C7.0724 19.7841 7.41092 19.7507 7.71856 19.6233C8.02619 19.4958 8.28913 19.28 8.47412 19.0032C8.6591 18.7263 8.75783 18.4008 8.75781 18.0678C8.7573 17.6214 8.57975 17.1935 8.26412 16.8779C7.9485 16.5623 7.52057 16.3848 7.07422 16.3843ZM7.07422 18.814C6.92666 18.814 6.78241 18.7702 6.65971 18.6882C6.53702 18.6062 6.44139 18.4897 6.38492 18.3534C6.32845 18.2171 6.31367 18.067 6.34246 17.9223C6.37125 17.7776 6.44231 17.6446 6.54665 17.5403C6.65099 17.436 6.78394 17.3649 6.92866 17.3361C7.07339 17.3073 7.22341 17.3221 7.35974 17.3786C7.49607 17.435 7.61259 17.5307 7.69457 17.6534C7.77656 17.7761 7.82031 17.9203 7.82031 18.0679C7.82007 18.2657 7.74138 18.4553 7.60151 18.5951C7.46164 18.735 7.27201 18.8137 7.07422 18.8139V18.814ZM31.761 16.3843C31.428 16.3843 31.1025 16.483 30.8256 16.668C30.5488 16.853 30.333 17.1159 30.2055 17.4236C30.0781 17.7312 30.0447 18.0697 30.1097 18.3963C30.1747 18.7229 30.335 19.0229 30.5705 19.2584C30.8059 19.4938 31.1059 19.6542 31.4325 19.7191C31.7591 19.7841 32.0976 19.7507 32.4053 19.6233C32.7129 19.4959 32.9758 19.2801 33.1608 19.0032C33.3458 18.7263 33.4445 18.4008 33.4445 18.0678C33.444 17.6215 33.2665 17.1935 32.9509 16.8779C32.6353 16.5623 32.2074 16.3848 31.761 16.3843ZM31.761 18.814C31.6135 18.814 31.4692 18.7702 31.3465 18.6883C31.2238 18.6063 31.1281 18.4898 31.0717 18.3534C31.0152 18.2171 31.0004 18.0671 31.0292 17.9224C31.058 17.7776 31.129 17.6447 31.2333 17.5403C31.3377 17.436 31.4706 17.3649 31.6154 17.3361C31.7601 17.3073 31.9101 17.3221 32.0464 17.3786C32.1828 17.435 32.2993 17.5307 32.3813 17.6534C32.4633 17.7761 32.507 17.9203 32.507 18.0679C32.5068 18.2656 32.4281 18.4553 32.2883 18.5951C32.1484 18.735 31.9588 18.8136 31.761 18.8139V18.814Z" fill="black"/>
</svg>
