<svg width="51" height="50" viewBox="0 0 51 50" fill="none" xmlns="http://www.w3.org/2000/svg">
<path d="M25.5 -0.00195312C11.7156 -0.00195312 0.5 11.2137 0.5 24.998C0.5 38.7824 11.7156 49.998 25.5 49.998C39.2844 49.998 50.5 38.7824 50.5 24.998C50.5 11.2137 39.2844 -0.00195312 25.5 -0.00195312ZM38.6594 17.9684L22.1328 34.2527C21.8421 34.5393 21.4508 34.7008 21.0425 34.7025C20.6343 34.7043 20.2416 34.5462 19.9484 34.2621L12.3484 26.9012C12.1993 26.7588 12.0798 26.5883 11.9968 26.3995C11.9138 26.2107 11.869 26.0074 11.865 25.8012C11.861 25.5951 11.8979 25.3901 11.9734 25.1983C12.049 25.0064 12.1618 24.8314 12.3053 24.6833C12.4489 24.5353 12.6203 24.4171 12.8097 24.3356C12.9991 24.2541 13.2028 24.2109 13.409 24.2085C13.6152 24.2061 13.8198 24.2445 14.0111 24.3216C14.2024 24.3986 14.3765 24.5128 14.5234 24.6574L21.0281 30.9559L36.4672 15.7434C36.7651 15.4675 37.1587 15.3183 37.5646 15.3276C37.9706 15.3369 38.357 15.5039 38.6419 15.7931C38.9269 16.0824 39.0881 16.4712 39.0914 16.8772C39.0946 17.2832 38.9397 17.6746 38.6594 17.9684Z" fill="#3F3F3F"/>
</svg>
