<svg width="120" height="120" viewBox="0 0 120 120" fill="none" xmlns="http://www.w3.org/2000/svg">
<path d="M39.4147 61.9478L39.415 61.9475C39.6522 61.7188 39.97 61.5895 40.3008 61.5895H53.6016C54.3033 61.5895 54.8734 62.1596 54.8734 62.8613C54.8734 63.563 54.3033 64.1332 53.6016 64.1332H40.8159L21.808 82.5814C21.5661 82.817 21.2458 82.9398 20.9219 82.9398C20.7418 82.9398 20.5595 82.9017 20.3897 82.8232M39.4147 61.9478L20.4316 82.7324M39.4147 61.9478L22.3992 78.4629L23.3752 62.94L39.4147 61.9478ZM20.3897 82.8232L20.4316 82.7324M20.3897 82.8232C20.3897 82.8232 20.3897 82.8232 20.3897 82.8232L20.4316 82.7324M20.3897 82.8232C20.1565 82.7156 19.9613 82.54 19.8297 82.3195C19.6981 82.099 19.6362 81.8438 19.6521 81.5875L19.6522 81.5875L20.7511 64.1289M20.4316 82.7324C20.2168 82.6333 20.0369 82.4715 19.9156 82.2683C19.7943 82.0651 19.7372 81.8299 19.752 81.5937L20.8511 64.1312C20.8177 64.1306 20.7844 64.1298 20.7511 64.1289M20.7511 64.1289L20.7574 64.029L23.2754 62.9336C23.2857 62.774 23.2631 62.6139 23.2091 62.4633C23.1551 62.3128 23.0707 62.1749 22.9612 62.0583C22.8517 61.9416 22.7194 61.8487 22.5726 61.7853C22.4257 61.7218 22.2674 61.6892 22.1074 61.6895V61.5895H22.1073H21.0137C17.3912 61.5895 14.4437 58.642 14.4437 55.0195V30.4785C14.4437 26.856 17.3912 23.9086 21.0137 23.9086H73.4023C77.0248 23.9086 79.9723 26.856 79.9723 30.4785V35.4453C79.9723 36.147 80.5424 36.7172 81.2441 36.7172C81.9458 36.7172 82.516 36.147 82.516 35.4453V30.4785C82.516 25.4526 78.4283 21.3648 73.4023 21.3648H21.0117C15.9858 21.3648 11.898 25.4526 11.898 30.4785V55.0195C11.898 59.9571 15.8446 63.9911 20.7511 64.1289Z" fill="#3F3F3F" stroke="#3F3F3F" stroke-width="0.2"/>
<mask id="path-2-outside-1_171_1724" maskUnits="userSpaceOnUse" x="22.1387" y="30.8594" width="87" height="68" fill="black">
<rect fill="white" x="22.1387" y="30.8594" width="87" height="68"/>
<path d="M62.3027 33.0312C62.3027 32.3848 61.7773 31.8594 61.1309 31.8594H24.3105C23.6641 31.8594 23.1387 32.3848 23.1387 33.0312C23.1387 33.6777 23.6641 34.2031 24.3105 34.2031H61.1309C61.7793 34.2031 62.3027 33.6777 62.3027 33.0312ZM45.6602 43.918C46.3066 43.918 46.832 43.3926 46.832 42.7461C46.832 42.0996 46.3066 41.5742 45.6602 41.5742H24.3105C23.6641 41.5742 23.1387 42.0996 23.1387 42.7461C23.1387 43.3926 23.6641 43.918 24.3105 43.918H45.6602ZM24.6152 53.6309H51.8437C52.4902 53.6309 53.0156 53.1055 53.0156 52.459C53.0156 51.8125 52.4902 51.2871 51.8437 51.2871H24.6152C23.9688 51.2871 23.4434 51.8125 23.4434 52.459C23.4434 53.1055 23.9688 53.6309 24.6152 53.6309ZM107.973 67.1934C108.281 53.5957 97.2363 40.1367 83.1465 40.3398C69.1055 40.2949 58 52.9941 58.2715 68.0098C58.2715 69.918 59.8223 71.4687 61.7305 71.4687H62.3633C62.5137 72.873 63.0273 74.2227 63.8496 75.3398C64.4687 76.1777 65.2676 76.8672 66.1582 77.332C67.0625 77.8047 68.0723 78.0566 69.082 78.0566C70.209 78.0566 71.2871 77.4707 72.0371 76.4492C72.7227 75.5195 73.0996 74.3027 73.0996 73.0215V63.1797C73.0996 60.3574 71.334 58.1465 69.082 58.1465C68.0762 58.1465 67.0664 58.3965 66.1621 58.8672C65.2519 59.3418 64.4746 60.0117 63.8496 60.8613C63.1035 61.875 62.6113 63.084 62.416 64.3516H61.7324C61.4121 64.3516 61.1035 64.3984 60.8086 64.4805C62.0508 52.2383 71.5957 42.6836 83.1504 42.6836C94.8223 42.6836 104.441 52.4316 105.527 64.8516C105.242 64.7754 104.945 64.7324 104.639 64.7324H104.006C103.855 63.3242 103.342 61.9746 102.521 60.8613C101.906 60.0254 101.107 59.3359 100.211 58.8672C99.3092 58.3952 98.3068 58.148 97.2891 58.1465C96.1621 58.1465 95.084 58.7324 94.334 59.7539C93.6484 60.6836 93.2715 61.9004 93.2715 63.1797V73.0215C93.2715 75.8457 95.0371 78.0566 97.2891 78.0566C98.3008 78.0566 99.3105 77.8066 100.211 77.334C101.105 76.8672 101.904 76.1777 102.521 75.3418C103.268 74.3301 103.762 73.1211 103.957 71.8516H104.641C104.932 71.8516 105.217 71.8145 105.49 71.7441C104.453 81.6992 97.832 90.1523 88.8711 92.7187C88.2246 91.6016 87.0195 90.8457 85.6387 90.8457H80.7383C78.6797 90.8457 77.0039 92.5215 77.0039 94.5801V94.8027C77.0039 96.8613 78.6797 98.5371 80.7383 98.5371H85.6387C87.625 98.5371 89.25 96.9766 89.3613 95.0156C94.459 93.5918 99.0664 90.4023 102.414 85.9512C106.457 80.6211 108.25 73.834 107.973 67.1934ZM65.7363 62.252C66.1484 61.6934 66.6543 61.2539 67.2441 60.9453C67.8242 60.6426 68.4414 60.4902 69.082 60.4902C69.873 60.4902 70.7559 61.5957 70.7559 63.1797V73.0215C70.7559 73.7949 70.5352 74.5371 70.1484 75.0605C69.9687 75.3047 69.5918 75.7129 69.082 75.7129C68.4414 75.7129 67.8242 75.5586 67.2441 75.2559C66.666 74.9531 66.1426 74.502 65.7363 73.9492C65.043 73.0059 64.6602 71.8184 64.6602 70.6055V65.5898C64.6621 65.5723 64.6621 65.5527 64.6621 65.5352C64.6719 64.3437 65.0547 63.1777 65.7363 62.252ZM61.7305 66.6953H62.3164V69.125H61.7305C61.1152 69.125 60.6152 68.625 60.6152 68.0098V67.8105C60.6152 67.1953 61.1152 66.6953 61.7305 66.6953ZM87.0215 94.8008C87.0215 95.5664 86.3984 96.1914 85.6309 96.1914H80.7305C79.9648 96.1914 79.3398 95.5684 79.3398 94.8008V94.5781C79.3398 93.8125 79.9629 93.1875 80.7305 93.1875H85.6309C86.3965 93.1875 87.0215 93.8105 87.0215 94.5781V94.8008ZM100.629 73.9492C100.223 74.5 99.6992 74.9531 99.1172 75.2578C98.5508 75.5566 97.916 75.7129 97.2832 75.7129C96.4922 75.7129 95.6094 74.6074 95.6094 73.0215V63.1797C95.6094 62.4082 95.8301 61.666 96.2168 61.1426C96.3965 60.8984 96.7734 60.4902 97.2832 60.4902C97.916 60.4902 98.5508 60.6465 99.1191 60.9453C99.7012 61.25 100.225 61.7012 100.629 62.252C101.322 63.1934 101.705 64.3809 101.705 65.5957V70.6113C101.703 70.6289 101.703 70.6484 101.703 70.666C101.691 71.8613 101.311 73.0254 100.629 73.9492ZM104.635 69.5059H104.049V67.0762H104.635C105.25 67.0762 105.75 67.5762 105.75 68.1914C105.795 68.8457 105.35 69.5234 104.635 69.5059Z"/>
</mask>
<path d="M62.3027 33.0312C62.3027 32.3848 61.7773 31.8594 61.1309 31.8594H24.3105C23.6641 31.8594 23.1387 32.3848 23.1387 33.0312C23.1387 33.6777 23.6641 34.2031 24.3105 34.2031H61.1309C61.7793 34.2031 62.3027 33.6777 62.3027 33.0312ZM45.6602 43.918C46.3066 43.918 46.832 43.3926 46.832 42.7461C46.832 42.0996 46.3066 41.5742 45.6602 41.5742H24.3105C23.6641 41.5742 23.1387 42.0996 23.1387 42.7461C23.1387 43.3926 23.6641 43.918 24.3105 43.918H45.6602ZM24.6152 53.6309H51.8437C52.4902 53.6309 53.0156 53.1055 53.0156 52.459C53.0156 51.8125 52.4902 51.2871 51.8437 51.2871H24.6152C23.9688 51.2871 23.4434 51.8125 23.4434 52.459C23.4434 53.1055 23.9688 53.6309 24.6152 53.6309ZM107.973 67.1934C108.281 53.5957 97.2363 40.1367 83.1465 40.3398C69.1055 40.2949 58 52.9941 58.2715 68.0098C58.2715 69.918 59.8223 71.4687 61.7305 71.4687H62.3633C62.5137 72.873 63.0273 74.2227 63.8496 75.3398C64.4687 76.1777 65.2676 76.8672 66.1582 77.332C67.0625 77.8047 68.0723 78.0566 69.082 78.0566C70.209 78.0566 71.2871 77.4707 72.0371 76.4492C72.7227 75.5195 73.0996 74.3027 73.0996 73.0215V63.1797C73.0996 60.3574 71.334 58.1465 69.082 58.1465C68.0762 58.1465 67.0664 58.3965 66.1621 58.8672C65.2519 59.3418 64.4746 60.0117 63.8496 60.8613C63.1035 61.875 62.6113 63.084 62.416 64.3516H61.7324C61.4121 64.3516 61.1035 64.3984 60.8086 64.4805C62.0508 52.2383 71.5957 42.6836 83.1504 42.6836C94.8223 42.6836 104.441 52.4316 105.527 64.8516C105.242 64.7754 104.945 64.7324 104.639 64.7324H104.006C103.855 63.3242 103.342 61.9746 102.521 60.8613C101.906 60.0254 101.107 59.3359 100.211 58.8672C99.3092 58.3952 98.3068 58.148 97.2891 58.1465C96.1621 58.1465 95.084 58.7324 94.334 59.7539C93.6484 60.6836 93.2715 61.9004 93.2715 63.1797V73.0215C93.2715 75.8457 95.0371 78.0566 97.2891 78.0566C98.3008 78.0566 99.3105 77.8066 100.211 77.334C101.105 76.8672 101.904 76.1777 102.521 75.3418C103.268 74.3301 103.762 73.1211 103.957 71.8516H104.641C104.932 71.8516 105.217 71.8145 105.49 71.7441C104.453 81.6992 97.832 90.1523 88.8711 92.7187C88.2246 91.6016 87.0195 90.8457 85.6387 90.8457H80.7383C78.6797 90.8457 77.0039 92.5215 77.0039 94.5801V94.8027C77.0039 96.8613 78.6797 98.5371 80.7383 98.5371H85.6387C87.625 98.5371 89.25 96.9766 89.3613 95.0156C94.459 93.5918 99.0664 90.4023 102.414 85.9512C106.457 80.6211 108.25 73.834 107.973 67.1934ZM65.7363 62.252C66.1484 61.6934 66.6543 61.2539 67.2441 60.9453C67.8242 60.6426 68.4414 60.4902 69.082 60.4902C69.873 60.4902 70.7559 61.5957 70.7559 63.1797V73.0215C70.7559 73.7949 70.5352 74.5371 70.1484 75.0605C69.9687 75.3047 69.5918 75.7129 69.082 75.7129C68.4414 75.7129 67.8242 75.5586 67.2441 75.2559C66.666 74.9531 66.1426 74.502 65.7363 73.9492C65.043 73.0059 64.6602 71.8184 64.6602 70.6055V65.5898C64.6621 65.5723 64.6621 65.5527 64.6621 65.5352C64.6719 64.3437 65.0547 63.1777 65.7363 62.252ZM61.7305 66.6953H62.3164V69.125H61.7305C61.1152 69.125 60.6152 68.625 60.6152 68.0098V67.8105C60.6152 67.1953 61.1152 66.6953 61.7305 66.6953ZM87.0215 94.8008C87.0215 95.5664 86.3984 96.1914 85.6309 96.1914H80.7305C79.9648 96.1914 79.3398 95.5684 79.3398 94.8008V94.5781C79.3398 93.8125 79.9629 93.1875 80.7305 93.1875H85.6309C86.3965 93.1875 87.0215 93.8105 87.0215 94.5781V94.8008ZM100.629 73.9492C100.223 74.5 99.6992 74.9531 99.1172 75.2578C98.5508 75.5566 97.916 75.7129 97.2832 75.7129C96.4922 75.7129 95.6094 74.6074 95.6094 73.0215V63.1797C95.6094 62.4082 95.8301 61.666 96.2168 61.1426C96.3965 60.8984 96.7734 60.4902 97.2832 60.4902C97.916 60.4902 98.5508 60.6465 99.1191 60.9453C99.7012 61.25 100.225 61.7012 100.629 62.252C101.322 63.1934 101.705 64.3809 101.705 65.5957V70.6113C101.703 70.6289 101.703 70.6484 101.703 70.666C101.691 71.8613 101.311 73.0254 100.629 73.9492ZM104.635 69.5059H104.049V67.0762H104.635C105.25 67.0762 105.75 67.5762 105.75 68.1914C105.795 68.8457 105.35 69.5234 104.635 69.5059Z" fill="#3F3F3F"/>
<path d="M62.3027 33.0312C62.3027 32.3848 61.7773 31.8594 61.1309 31.8594H24.3105C23.6641 31.8594 23.1387 32.3848 23.1387 33.0312C23.1387 33.6777 23.6641 34.2031 24.3105 34.2031H61.1309C61.7793 34.2031 62.3027 33.6777 62.3027 33.0312ZM45.6602 43.918C46.3066 43.918 46.832 43.3926 46.832 42.7461C46.832 42.0996 46.3066 41.5742 45.6602 41.5742H24.3105C23.6641 41.5742 23.1387 42.0996 23.1387 42.7461C23.1387 43.3926 23.6641 43.918 24.3105 43.918H45.6602ZM24.6152 53.6309H51.8437C52.4902 53.6309 53.0156 53.1055 53.0156 52.459C53.0156 51.8125 52.4902 51.2871 51.8437 51.2871H24.6152C23.9688 51.2871 23.4434 51.8125 23.4434 52.459C23.4434 53.1055 23.9688 53.6309 24.6152 53.6309ZM107.973 67.1934C108.281 53.5957 97.2363 40.1367 83.1465 40.3398C69.1055 40.2949 58 52.9941 58.2715 68.0098C58.2715 69.918 59.8223 71.4687 61.7305 71.4687H62.3633C62.5137 72.873 63.0273 74.2227 63.8496 75.3398C64.4687 76.1777 65.2676 76.8672 66.1582 77.332C67.0625 77.8047 68.0723 78.0566 69.082 78.0566C70.209 78.0566 71.2871 77.4707 72.0371 76.4492C72.7227 75.5195 73.0996 74.3027 73.0996 73.0215V63.1797C73.0996 60.3574 71.334 58.1465 69.082 58.1465C68.0762 58.1465 67.0664 58.3965 66.1621 58.8672C65.2519 59.3418 64.4746 60.0117 63.8496 60.8613C63.1035 61.875 62.6113 63.084 62.416 64.3516H61.7324C61.4121 64.3516 61.1035 64.3984 60.8086 64.4805C62.0508 52.2383 71.5957 42.6836 83.1504 42.6836C94.8223 42.6836 104.441 52.4316 105.527 64.8516C105.242 64.7754 104.945 64.7324 104.639 64.7324H104.006C103.855 63.3242 103.342 61.9746 102.521 60.8613C101.906 60.0254 101.107 59.3359 100.211 58.8672C99.3092 58.3952 98.3068 58.148 97.2891 58.1465C96.1621 58.1465 95.084 58.7324 94.334 59.7539C93.6484 60.6836 93.2715 61.9004 93.2715 63.1797V73.0215C93.2715 75.8457 95.0371 78.0566 97.2891 78.0566C98.3008 78.0566 99.3105 77.8066 100.211 77.334C101.105 76.8672 101.904 76.1777 102.521 75.3418C103.268 74.3301 103.762 73.1211 103.957 71.8516H104.641C104.932 71.8516 105.217 71.8145 105.49 71.7441C104.453 81.6992 97.832 90.1523 88.8711 92.7187C88.2246 91.6016 87.0195 90.8457 85.6387 90.8457H80.7383C78.6797 90.8457 77.0039 92.5215 77.0039 94.5801V94.8027C77.0039 96.8613 78.6797 98.5371 80.7383 98.5371H85.6387C87.625 98.5371 89.25 96.9766 89.3613 95.0156C94.459 93.5918 99.0664 90.4023 102.414 85.9512C106.457 80.6211 108.25 73.834 107.973 67.1934ZM65.7363 62.252C66.1484 61.6934 66.6543 61.2539 67.2441 60.9453C67.8242 60.6426 68.4414 60.4902 69.082 60.4902C69.873 60.4902 70.7559 61.5957 70.7559 63.1797V73.0215C70.7559 73.7949 70.5352 74.5371 70.1484 75.0605C69.9687 75.3047 69.5918 75.7129 69.082 75.7129C68.4414 75.7129 67.8242 75.5586 67.2441 75.2559C66.666 74.9531 66.1426 74.502 65.7363 73.9492C65.043 73.0059 64.6602 71.8184 64.6602 70.6055V65.5898C64.6621 65.5723 64.6621 65.5527 64.6621 65.5352C64.6719 64.3437 65.0547 63.1777 65.7363 62.252ZM61.7305 66.6953H62.3164V69.125H61.7305C61.1152 69.125 60.6152 68.625 60.6152 68.0098V67.8105C60.6152 67.1953 61.1152 66.6953 61.7305 66.6953ZM87.0215 94.8008C87.0215 95.5664 86.3984 96.1914 85.6309 96.1914H80.7305C79.9648 96.1914 79.3398 95.5684 79.3398 94.8008V94.5781C79.3398 93.8125 79.9629 93.1875 80.7305 93.1875H85.6309C86.3965 93.1875 87.0215 93.8105 87.0215 94.5781V94.8008ZM100.629 73.9492C100.223 74.5 99.6992 74.9531 99.1172 75.2578C98.5508 75.5566 97.916 75.7129 97.2832 75.7129C96.4922 75.7129 95.6094 74.6074 95.6094 73.0215V63.1797C95.6094 62.4082 95.8301 61.666 96.2168 61.1426C96.3965 60.8984 96.7734 60.4902 97.2832 60.4902C97.916 60.4902 98.5508 60.6465 99.1191 60.9453C99.7012 61.25 100.225 61.7012 100.629 62.252C101.322 63.1934 101.705 64.3809 101.705 65.5957V70.6113C101.703 70.6289 101.703 70.6484 101.703 70.666C101.691 71.8613 101.311 73.0254 100.629 73.9492ZM104.635 69.5059H104.049V67.0762H104.635C105.25 67.0762 105.75 67.5762 105.75 68.1914C105.795 68.8457 105.35 69.5234 104.635 69.5059Z" stroke="#3F3F3F" stroke-width="0.4" mask="url(#path-2-outside-1_171_1724)"/>
</svg>
