<svg width="24" height="25" viewBox="0 0 24 25" fill="none" xmlns="http://www.w3.org/2000/svg">
<path d="M21.9999 9.57996C21.9999 10.96 21.4799 12.33 20.4299 13.38L12.7099 21.1C12.5099 21.29 12.2599 21.39 11.9999 21.39C11.7399 21.39 11.4899 21.29 11.2899 21.1L3.56986 13.38C2.56594 12.3701 2.00244 11.0039 2.00244 9.57996C2.00244 8.15598 2.56594 6.78985 3.56986 5.77996C4.57975 4.77604 5.94588 4.21254 7.36986 4.21254C8.79385 4.21254 10.16 4.77604 11.1699 5.77996L11.9999 6.61996L12.8299 5.77996C13.8398 4.77604 15.2059 4.21254 16.6299 4.21254C18.0539 4.21254 19.42 4.77604 20.4299 5.77996C20.9295 6.27829 21.3256 6.87067 21.595 7.5229C21.8645 8.17512 22.0021 8.87427 21.9999 9.57996Z" fill="#3F3F3F"/>
</svg>
