<svg width="80" height="80" viewBox="0 0 80 80" fill="none" xmlns="http://www.w3.org/2000/svg">
<mask id="path-1-inside-1_2276_10733" fill="white">
<path d="M76.0882 31.0624H71.5609L65.8241 26.2812C64.7055 25.3509 63.2967 24.8411 61.8418 24.8402H59.0617L63.5654 12.8338C63.6362 12.6454 63.6603 12.4426 63.6356 12.2428C63.6109 12.0431 63.5381 11.8523 63.4234 11.6869C63.3088 11.5214 63.1557 11.3863 62.9773 11.293C62.799 11.1997 62.6006 11.1511 62.3993 11.1513H50.4166C48.7381 11.1532 47.097 10.6564 45.7014 9.72391C44.006 8.58505 42.0253 7.94407 39.9841 7.87368C37.9429 7.80329 35.9228 8.30632 34.1529 9.32569L32.9172 10.0313C31.6325 10.7644 30.179 11.1504 28.6998 11.1513H17.5993C17.3981 11.1511 17.1997 11.1997 17.0214 11.293C16.843 11.3863 16.6899 11.5214 16.5753 11.6869C16.4606 11.8523 16.3878 12.0431 16.3631 12.2428C16.3384 12.4426 16.3625 12.6454 16.4333 12.8338L20.9369 24.8402H18.1569C16.702 24.8411 15.2932 25.3509 14.1746 26.2812L8.43775 31.0624H3.91046C3.58041 31.0624 3.26388 31.1935 3.0305 31.4269C2.79713 31.6603 2.66602 31.9768 2.66602 32.3069L2.66602 64.6624C2.66602 64.9925 2.79713 65.309 3.0305 65.5424C3.26388 65.7757 3.58041 65.9069 3.91046 65.9069H8.43775L14.1746 70.688C15.2932 71.6184 16.702 72.1282 18.1569 72.1291H61.8369C63.2918 72.1282 64.7005 71.6184 65.8191 70.688L71.5609 65.9069H76.0882C76.4183 65.9069 76.7348 65.7757 76.9682 65.5424C77.2016 65.309 77.3327 64.9925 77.3327 64.6624V32.3069C77.3327 31.9768 77.2016 31.6603 76.9682 31.4269C76.7348 31.1935 76.4183 31.0624 76.0882 31.0624ZM7.64379 63.418H5.1549V33.5513H7.64379V63.418ZM19.3951 13.6402H28.6998C30.6118 13.64 32.4906 13.1407 34.1505 12.1916L35.3862 11.4873C36.7553 10.6986 38.318 10.3094 39.8971 10.3637C41.4761 10.418 43.0084 10.9138 44.3201 11.7947C46.1245 13.0003 48.2464 13.6427 50.4166 13.6402H60.6036L50.3369 41.018H45.1775L48.6968 17.5577L46.2353 17.1844L42.6612 41.018H37.3375L33.7634 17.1893L31.3019 17.5627L34.8212 41.018H29.6617L19.3951 13.6402ZM64.2312 68.7753C63.56 69.3335 62.7148 69.6394 61.8418 69.6402H18.1618C17.2881 69.6377 16.4428 69.3295 15.7725 68.7691L10.8321 64.6624L15.7675 60.5557C16.4378 59.9953 17.2831 59.6871 18.1569 59.6846H61.8369C62.7106 59.6871 63.5559 59.9953 64.2262 60.5557L69.1666 64.6624L64.2312 68.7753ZM69.866 62.0105L65.8241 58.6418C64.7062 57.7097 63.2973 57.1981 61.8418 57.1957H18.1618C16.7069 57.1967 15.2982 57.7065 14.1796 58.6368L10.1327 62.0055V32.8855L15.7675 28.2002C16.4378 27.6397 17.2831 27.3315 18.1569 27.3291H21.8703L27.0036 41.018H22.5771V43.5069H57.4216V41.018H52.9951L58.1284 27.3291H61.8418C62.7156 27.3315 63.5609 27.6397 64.2312 28.2002L69.866 32.8905V62.0105ZM74.8438 63.418H72.3549V33.5513H74.8438V63.418Z"/>
</mask>
<path d="M76.0882 31.0624H71.5609L65.8241 26.2812C64.7055 25.3509 63.2967 24.8411 61.8418 24.8402H59.0617L63.5654 12.8338C63.6362 12.6454 63.6603 12.4426 63.6356 12.2428C63.6109 12.0431 63.5381 11.8523 63.4234 11.6869C63.3088 11.5214 63.1557 11.3863 62.9773 11.293C62.799 11.1997 62.6006 11.1511 62.3993 11.1513H50.4166C48.7381 11.1532 47.097 10.6564 45.7014 9.72391C44.006 8.58505 42.0253 7.94407 39.9841 7.87368C37.9429 7.80329 35.9228 8.30632 34.1529 9.32569L32.9172 10.0313C31.6325 10.7644 30.179 11.1504 28.6998 11.1513H17.5993C17.3981 11.1511 17.1997 11.1997 17.0214 11.293C16.843 11.3863 16.6899 11.5214 16.5753 11.6869C16.4606 11.8523 16.3878 12.0431 16.3631 12.2428C16.3384 12.4426 16.3625 12.6454 16.4333 12.8338L20.9369 24.8402H18.1569C16.702 24.8411 15.2932 25.3509 14.1746 26.2812L8.43775 31.0624H3.91046C3.58041 31.0624 3.26388 31.1935 3.0305 31.4269C2.79713 31.6603 2.66602 31.9768 2.66602 32.3069L2.66602 64.6624C2.66602 64.9925 2.79713 65.309 3.0305 65.5424C3.26388 65.7757 3.58041 65.9069 3.91046 65.9069H8.43775L14.1746 70.688C15.2932 71.6184 16.702 72.1282 18.1569 72.1291H61.8369C63.2918 72.1282 64.7005 71.6184 65.8191 70.688L71.5609 65.9069H76.0882C76.4183 65.9069 76.7348 65.7757 76.9682 65.5424C77.2016 65.309 77.3327 64.9925 77.3327 64.6624V32.3069C77.3327 31.9768 77.2016 31.6603 76.9682 31.4269C76.7348 31.1935 76.4183 31.0624 76.0882 31.0624ZM7.64379 63.418H5.1549V33.5513H7.64379V63.418ZM19.3951 13.6402H28.6998C30.6118 13.64 32.4906 13.1407 34.1505 12.1916L35.3862 11.4873C36.7553 10.6986 38.318 10.3094 39.8971 10.3637C41.4761 10.418 43.0084 10.9138 44.3201 11.7947C46.1245 13.0003 48.2464 13.6427 50.4166 13.6402H60.6036L50.3369 41.018H45.1775L48.6968 17.5577L46.2353 17.1844L42.6612 41.018H37.3375L33.7634 17.1893L31.3019 17.5627L34.8212 41.018H29.6617L19.3951 13.6402ZM64.2312 68.7753C63.56 69.3335 62.7148 69.6394 61.8418 69.6402H18.1618C17.2881 69.6377 16.4428 69.3295 15.7725 68.7691L10.8321 64.6624L15.7675 60.5557C16.4378 59.9953 17.2831 59.6871 18.1569 59.6846H61.8369C62.7106 59.6871 63.5559 59.9953 64.2262 60.5557L69.1666 64.6624L64.2312 68.7753ZM69.866 62.0105L65.8241 58.6418C64.7062 57.7097 63.2973 57.1981 61.8418 57.1957H18.1618C16.7069 57.1967 15.2982 57.7065 14.1796 58.6368L10.1327 62.0055V32.8855L15.7675 28.2002C16.4378 27.6397 17.2831 27.3315 18.1569 27.3291H21.8703L27.0036 41.018H22.5771V43.5069H57.4216V41.018H52.9951L58.1284 27.3291H61.8418C62.7156 27.3315 63.5609 27.6397 64.2312 28.2002L69.866 32.8905V62.0105ZM74.8438 63.418H72.3549V33.5513H74.8438V63.418Z" fill="#3F3F3F" stroke="white" stroke-width="0.2" mask="url(#path-1-inside-1_2276_10733)"/>
</svg>
