<svg width="80" height="80" viewBox="0 0 80 80" fill="none" xmlns="http://www.w3.org/2000/svg">
<path d="M6.389 13.6654H6.18415V13.8728V34.4398C6.18415 46.4022 12.1945 57.3021 22.2612 63.595C25.131 65.3883 28.523 66.3345 32.0685 66.3345H47.9303C51.4766 66.3345 54.8687 65.3883 57.7376 63.595C67.8043 57.3021 73.8148 46.4024 73.8148 34.4398V13.8728V13.6654H73.6099H6.389ZM47.9303 69.2224H32.0685C27.9891 69.2224 24.0806 68.1253 20.7625 66.052C9.8476 59.2288 3.33203 47.4117 3.33203 34.4398V12.2214C3.33203 11.4236 3.97041 10.7773 4.7581 10.7773H75.241C76.0287 10.7773 76.6672 11.4237 76.6672 12.2214V34.4398C76.6672 47.4123 70.1515 59.2287 59.2365 66.052C55.9199 68.1253 52.0104 69.2224 47.9303 69.2224Z" fill="#3F3F3F"/>
<path d="M57.7376 63.595C54.8687 65.3883 51.4766 66.3345 47.9303 66.3345H32.0685C28.523 66.3345 25.131 65.3883 22.2612 63.595C12.1945 57.3021 6.18415 46.4022 6.18415 34.4398V13.8728V13.6654H6.389H73.6099H73.8148V13.8728V34.4398C73.8148 46.4024 67.8043 57.3021 57.7376 63.595ZM57.7376 63.595L57.6301 63.4185M47.9303 69.2224H32.0685C27.9891 69.2224 24.0806 68.1253 20.7625 66.052C9.8476 59.2288 3.33203 47.4117 3.33203 34.4398V12.2214C3.33203 11.4236 3.97041 10.7773 4.7581 10.7773H75.241C76.0287 10.7773 76.6672 11.4237 76.6672 12.2214V34.4398C76.6672 47.4123 70.1515 59.2287 59.2365 66.052C55.9199 68.1253 52.0104 69.2224 47.9303 69.2224Z" stroke="white" stroke-width="0.414814"/>
<path d="M53.2539 68.5664C53.1427 68.5941 53.0284 68.6081 52.9138 68.6081C52.6936 68.608 52.4765 68.5564 52.2793 68.4572C52.0821 68.3581 51.9103 68.2142 51.7772 68.0367C49.188 64.5803 47.8197 60.4764 47.8197 56.1678C47.8197 45.317 56.5385 36.4893 67.2553 36.4893C70.0912 36.4893 72.8509 37.1134 75.4578 38.345C75.7358 38.4764 75.9644 38.6951 76.11 38.9685C76.2555 39.2419 76.31 39.5556 76.2655 39.8629C74.6944 50.7236 68.4878 60.2699 59.2361 66.0537C57.4312 67.1822 55.4181 68.0283 53.2539 68.5664ZM53.4113 65.3796L53.4959 65.509L53.6423 65.4634C55.1102 65.0063 56.484 64.3806 57.7378 63.5967C65.9114 58.4869 71.508 50.1951 73.2381 40.7033L73.2691 40.5334L73.1096 40.4719C71.2266 39.745 69.2626 39.3773 67.2554 39.3773C58.1115 39.3773 50.6722 46.9096 50.6722 56.1678C50.6722 59.4689 51.6161 62.6314 53.4113 65.3796ZM26.7463 68.5665C24.584 68.0289 22.5712 67.1835 20.763 66.0543C11.5114 60.2705 5.3048 50.7243 3.73301 39.8629C3.68856 39.5556 3.74314 39.242 3.88865 38.9685C4.03414 38.6951 4.26281 38.4765 4.54071 38.345C7.14781 37.1134 9.90752 36.4893 12.744 36.4893C23.461 36.4893 32.1795 45.3171 32.1795 56.1678C32.1795 60.4764 30.8112 64.5803 28.222 68.0367C28.089 68.2142 27.9172 68.3582 27.7202 68.4573C27.523 68.5564 27.3059 68.608 27.0859 68.6081C26.9725 68.6081 26.8583 68.5945 26.7463 68.5665ZM6.88959 40.4721L6.73014 40.5336L6.76113 40.7035C8.49171 50.196 14.0886 58.4875 22.2612 63.5969C23.5165 64.3813 24.8908 65.0065 26.3573 65.4635L26.5039 65.5092L26.5884 65.3797C28.3835 62.6322 29.3276 59.4691 29.3276 56.168C29.3276 46.9097 21.8881 39.3774 12.7442 39.3774C10.737 39.3773 8.77308 39.745 6.88959 40.4721ZM6.18415 27.1549V27.3623H6.389H25.9084H26.1132V27.1549V22.275V22.0676H25.9084H6.389H6.18415V22.275V27.1549ZM27.5394 30.2502H4.7581C3.97039 30.2502 3.33203 29.6039 3.33203 28.8063V20.6237C3.33203 19.8261 3.97042 19.1797 4.7581 19.1797H27.5394C28.3272 19.1797 28.9655 19.8261 28.9655 20.6237V28.8063C28.9655 29.6039 28.3272 30.2502 27.5394 30.2502Z" fill="#3F3F3F"/>
<path d="M59.2361 66.0537C68.4878 60.2699 74.6944 50.7236 76.2655 39.8629C76.31 39.5556 76.2555 39.2419 76.11 38.9685C75.9644 38.6951 75.7358 38.4764 75.4578 38.345C72.8509 37.1134 70.0912 36.4893 67.2553 36.4893C56.5385 36.4893 47.8197 45.317 47.8197 56.1678C47.8197 60.4764 49.188 64.5803 51.7772 68.0367C51.9103 68.2142 52.0821 68.3581 52.2793 68.4572C52.4765 68.5564 52.6936 68.608 52.9138 68.6081C53.0284 68.6081 53.1427 68.5941 53.2539 68.5664C55.4181 68.0283 57.4312 67.1822 59.2361 66.0537ZM59.2361 66.0537L59.3377 66.2203M53.4113 65.3796L53.4959 65.509L53.6423 65.4634C55.1102 65.0063 56.484 64.3806 57.7378 63.5967C65.9114 58.4869 71.508 50.1951 73.2381 40.7033L73.2691 40.5334L73.1096 40.4719C71.2266 39.745 69.2626 39.3773 67.2554 39.3773C58.1115 39.3773 50.6722 46.9096 50.6722 56.1678C50.6722 59.4689 51.6161 62.6314 53.4113 65.3796ZM26.7463 68.5665C24.584 68.0289 22.5712 67.1835 20.763 66.0543C11.5114 60.2705 5.3048 50.7243 3.73301 39.8629C3.68856 39.5556 3.74314 39.242 3.88865 38.9685C4.03414 38.6951 4.26281 38.4765 4.54071 38.345C7.14781 37.1134 9.90752 36.4893 12.744 36.4893C23.461 36.4893 32.1795 45.3171 32.1795 56.1678C32.1795 60.4764 30.8112 64.5803 28.222 68.0367C28.089 68.2142 27.9172 68.3582 27.7202 68.4573C27.523 68.5564 27.3059 68.608 27.0859 68.6081C26.9725 68.6081 26.8583 68.5945 26.7463 68.5665ZM6.88959 40.4721L6.73014 40.5336L6.76113 40.7035C8.49171 50.196 14.0886 58.4875 22.2612 63.5969C23.5165 64.3813 24.8908 65.0065 26.3573 65.4635L26.5039 65.5092L26.5884 65.3797C28.3835 62.6322 29.3276 59.4691 29.3276 56.168C29.3276 46.9097 21.8881 39.3774 12.7442 39.3774C10.737 39.3773 8.77308 39.745 6.88959 40.4721ZM6.18415 27.1549V27.3623H6.389H25.9084H26.1132V27.1549V22.275V22.0676H25.9084H6.389H6.18415V22.275V27.1549ZM27.5394 30.2502H4.7581C3.97039 30.2502 3.33203 29.6039 3.33203 28.8063V20.6237C3.33203 19.8261 3.97042 19.1797 4.7581 19.1797H27.5394C28.3272 19.1797 28.9655 19.8261 28.9655 20.6237V28.8063C28.9655 29.6039 28.3272 30.2502 27.5394 30.2502Z" stroke="white" stroke-width="0.414814"/>
<path d="M53.8855 27.1551V27.3625H54.0904H73.6098H73.8146V27.1551V22.2752V22.0678H73.6098H54.0904H53.8855V22.2752V27.1551ZM27.5394 33.0868C26.7517 33.0868 26.1133 32.4404 26.1133 31.6429V17.7876C26.1133 16.9901 26.7518 16.3438 27.5394 16.3438C28.327 16.3438 28.9654 16.9902 28.9654 17.7876V31.6429C28.9654 32.4404 28.3271 33.0868 27.5394 33.0868ZM75.2407 30.2504H52.4594C51.6716 30.2504 51.0333 29.6041 51.0333 28.8066V20.6239C51.0333 19.8264 51.6718 19.1799 52.4594 19.1799H75.2407C76.0284 19.1799 76.667 19.8264 76.667 20.6239V28.8066C76.667 29.6041 76.0284 30.2504 75.2407 30.2504Z" fill="#3F3F3F" stroke="white" stroke-width="0.414814"/>
<path d="M53.8854 31.6429C53.8855 32.4404 53.2471 33.0868 52.4593 33.0868C51.6715 33.0868 51.0332 32.4404 51.0332 31.6429V17.7876C51.0332 16.9901 51.6717 16.3438 52.4593 16.3438C53.2471 16.3438 53.8854 16.9902 53.8854 17.7876V31.6429Z" fill="#3F3F3F" stroke="white" stroke-width="0.414814"/>
</svg>
