<svg width="81" height="80" viewBox="0 0 81 80" fill="none" xmlns="http://www.w3.org/2000/svg">
<mask id="path-1-inside-1_171_1645" fill="white">
<path d="M40.4995 24.7649C30.1841 24.7649 19.5514 24.1301 7.17291 22.7018C6.69682 22.7018 6.37942 22.3844 6.06202 22.067C5.74463 21.7496 5.74463 21.2735 5.74463 20.9561C5.90333 19.2104 6.22072 17.3061 6.37942 15.5604C6.53812 13.656 6.85552 11.9103 7.01421 10.006C7.17291 9.05377 7.9664 8.41898 8.75989 8.57768C20.5035 9.84726 30.6602 10.4821 40.4995 10.4821C50.3388 10.4821 60.4954 9.84726 72.3978 8.57768C72.8739 8.57768 73.1913 8.73638 73.5087 8.89508C73.8261 9.21247 73.9848 9.52987 74.1435 10.006C74.3022 11.7516 74.4608 13.656 74.6195 15.4017C74.7782 17.3061 75.0956 19.0517 75.2543 20.9561C75.2543 21.7496 74.7782 22.5431 73.8261 22.7018C61.4476 24.1301 50.9735 24.7649 40.4995 24.7649ZM9.07729 19.6865C20.6622 20.9561 30.6602 21.5909 40.4995 21.5909C50.3388 21.5909 60.3367 20.9561 71.9217 19.6865C71.763 18.417 71.6043 17.1474 71.4456 15.7191C71.2869 14.4495 71.1282 13.1799 70.9695 11.7516C59.8606 13.1799 50.0214 13.656 40.4995 13.656C30.9776 13.656 21.297 13.0212 10.0295 11.9103C9.87078 13.1799 9.71208 14.4495 9.55338 15.8778L9.07729 19.6865Z"/>
</mask>
<path d="M40.4995 24.7649C30.1841 24.7649 19.5514 24.1301 7.17291 22.7018C6.69682 22.7018 6.37942 22.3844 6.06202 22.067C5.74463 21.7496 5.74463 21.2735 5.74463 20.9561C5.90333 19.2104 6.22072 17.3061 6.37942 15.5604C6.53812 13.656 6.85552 11.9103 7.01421 10.006C7.17291 9.05377 7.9664 8.41898 8.75989 8.57768C20.5035 9.84726 30.6602 10.4821 40.4995 10.4821C50.3388 10.4821 60.4954 9.84726 72.3978 8.57768C72.8739 8.57768 73.1913 8.73638 73.5087 8.89508C73.8261 9.21247 73.9848 9.52987 74.1435 10.006C74.3022 11.7516 74.4608 13.656 74.6195 15.4017C74.7782 17.3061 75.0956 19.0517 75.2543 20.9561C75.2543 21.7496 74.7782 22.5431 73.8261 22.7018C61.4476 24.1301 50.9735 24.7649 40.4995 24.7649ZM9.07729 19.6865C20.6622 20.9561 30.6602 21.5909 40.4995 21.5909C50.3388 21.5909 60.3367 20.9561 71.9217 19.6865C71.763 18.417 71.6043 17.1474 71.4456 15.7191C71.2869 14.4495 71.1282 13.1799 70.9695 11.7516C59.8606 13.1799 50.0214 13.656 40.4995 13.656C30.9776 13.656 21.297 13.0212 10.0295 11.9103C9.87078 13.1799 9.71208 14.4495 9.55338 15.8778L9.07729 19.6865Z" fill="#3F3F3F"/>
<path d="M7.17291 22.7018L7.21839 22.3077L7.19572 22.3051H7.17291V22.7018ZM5.74463 20.9561L5.34951 20.9202L5.34788 20.9381V20.9561H5.74463ZM6.37942 15.5604L6.77455 15.5963L6.7748 15.5933L6.37942 15.5604ZM7.01421 10.006L6.62287 9.94074L6.62019 9.95679L6.61884 9.97301L7.01421 10.006ZM8.75989 8.57768L8.68208 8.96672L8.69954 8.97021L8.71725 8.97213L8.75989 8.57768ZM72.3978 8.57768V8.18093H72.3767L72.3557 8.18317L72.3978 8.57768ZM73.5087 8.89508L73.7892 8.61453L73.7437 8.56901L73.6861 8.54022L73.5087 8.89508ZM74.1435 10.006L74.5386 9.97004L74.5344 9.92418L74.5198 9.8805L74.1435 10.006ZM74.6195 15.4017L75.0149 15.3687L75.0147 15.3658L74.6195 15.4017ZM75.2543 20.9561H75.6511V20.9396L75.6497 20.9232L75.2543 20.9561ZM73.8261 22.7018L73.8715 23.0959L73.8814 23.0948L73.8913 23.0931L73.8261 22.7018ZM9.07729 19.6865L8.6836 19.6373L8.63364 20.037L9.03407 20.0809L9.07729 19.6865ZM71.9217 19.6865L71.9649 20.0809L72.3653 20.037L72.3154 19.6373L71.9217 19.6865ZM71.4456 15.7191L71.8399 15.6753L71.8393 15.6699L71.4456 15.7191ZM70.9695 11.7516L71.3638 11.7078L71.3192 11.3067L70.9189 11.3581L70.9695 11.7516ZM10.0295 11.9103L10.0684 11.5155L9.68374 11.4776L9.63579 11.8611L10.0295 11.9103ZM9.55338 15.8778L9.9471 15.927L9.9477 15.9216L9.55338 15.8778ZM40.4995 24.3681C30.2013 24.3681 19.5838 23.7344 7.21839 22.3077L7.12743 23.0959C19.5189 24.5257 30.1669 25.1616 40.4995 25.1616V24.3681ZM7.17291 22.3051C6.88688 22.3051 6.68271 22.1266 6.34257 21.7865L5.78148 22.3475C6.07613 22.6422 6.50676 23.0985 7.17291 23.0985V22.3051ZM6.34257 21.7865C6.15956 21.6035 6.14137 21.3057 6.14137 20.9561H5.34788C5.34788 21.2413 5.32969 21.8958 5.78148 22.3475L6.34257 21.7865ZM6.13974 20.992C6.21827 20.1283 6.33621 19.2236 6.45544 18.3096C6.57426 17.3986 6.69436 16.4782 6.77454 15.5963L5.98431 15.5245C5.90578 16.3882 5.78784 17.2929 5.66861 18.2069C5.54979 19.1179 5.42969 20.0383 5.34951 20.9202L6.13974 20.992ZM6.7748 15.5933C6.85326 14.6518 6.97104 13.7483 7.09023 12.8345C7.20909 11.9232 7.32935 11.0017 7.40959 10.0389L6.61884 9.97301C6.54038 10.9145 6.42259 11.8181 6.3034 12.7319C6.18455 13.6431 6.06428 14.5646 5.98405 15.5274L6.7748 15.5933ZM7.40556 10.0712C7.53755 9.27927 8.16441 8.86318 8.68208 8.96672L8.8377 8.18864C7.76839 7.97478 6.80828 8.82828 6.62287 9.94074L7.40556 10.0712ZM8.71725 8.97213C20.4713 10.2428 30.6426 10.8788 40.4995 10.8788V10.0853C30.6778 10.0853 20.5358 9.45169 8.80253 8.18323L8.71725 8.97213ZM40.4995 10.8788C50.3564 10.8788 60.5276 10.2428 72.4399 8.97219L72.3557 8.18317C60.4633 9.45169 50.3212 10.0853 40.4995 10.0853V10.8788ZM72.3978 8.97442C72.7728 8.97442 73.0169 9.09279 73.3312 9.24993L73.6861 8.54022C73.3656 8.37996 72.975 8.18093 72.3978 8.18093V8.97442ZM73.2281 9.17562C73.4859 9.43336 73.6191 9.68745 73.7671 10.1314L74.5198 9.8805C74.3504 9.37229 74.1662 8.99158 73.7892 8.61453L73.2281 9.17562ZM73.7483 10.0419C73.8276 10.9138 73.9069 11.8255 73.9862 12.7382C74.0656 13.6506 74.145 14.5639 74.2244 15.4376L75.0147 15.3658C74.9354 14.4938 74.8561 13.5821 74.7768 12.6695C74.6974 11.7571 74.618 10.8438 74.5386 9.97004L73.7483 10.0419ZM74.2242 15.4346C74.3044 16.3975 74.4247 17.319 74.5435 18.2302C74.6627 19.144 74.7805 20.0475 74.859 20.9891L75.6497 20.9232C75.5695 19.9603 75.4492 19.0388 75.3304 18.1276C75.2112 17.2138 75.0934 16.3103 75.0149 15.3687L74.2242 15.4346ZM74.8576 20.9561C74.8576 21.5982 74.4826 22.1902 73.7608 22.3105L73.8913 23.0931C75.0739 22.896 75.6511 21.901 75.6511 20.9561H74.8576ZM73.7806 22.3077C61.415 23.7345 50.9563 24.3681 40.4995 24.3681V25.1616C50.9908 25.1616 61.4802 24.5257 73.8715 23.0959L73.7806 22.3077ZM9.03407 20.0809C20.6297 21.3517 30.6425 21.9877 40.4995 21.9877V21.1942C30.678 21.1942 20.6948 20.5606 9.12051 19.2922L9.03407 20.0809ZM40.4995 21.9877C50.3565 21.9877 60.3693 21.3517 71.9649 20.0809L71.8785 19.2922C60.3041 20.5606 50.321 21.1942 40.4995 21.1942V21.9877ZM72.3154 19.6373C72.1566 18.3675 71.9983 17.1005 71.8399 15.6753L71.0513 15.7629C71.2103 17.1942 71.3693 18.4664 71.528 19.7357L72.3154 19.6373ZM71.8393 15.6699C71.6805 14.4001 71.5222 13.133 71.3638 11.7078L70.5752 11.7955C70.7342 13.2268 70.8932 14.4989 71.0519 15.7683L71.8393 15.6699ZM70.9189 11.3581C59.8293 12.7839 50.0072 13.2593 40.4995 13.2593V14.0528C50.0356 14.0528 59.892 13.5759 71.0201 12.1451L70.9189 11.3581ZM40.4995 13.2593C30.9954 13.2593 21.3289 12.6257 10.0684 11.5155L9.99055 12.3052C21.2652 13.4168 30.9598 14.0528 40.4995 14.0528V13.2593ZM9.63579 11.8611C9.47712 13.1305 9.3181 14.4026 9.15906 15.834L9.9477 15.9216C10.1061 14.4964 10.2644 13.2293 10.4232 11.9595L9.63579 11.8611ZM9.1597 15.8286L8.6836 19.6373L9.47097 19.7357L9.94706 15.927L9.1597 15.8286Z" fill="white" mask="url(#path-1-inside-1_171_1645)"/>
<path d="M6.34136 41.245L6.31858 41.4287L6.50023 41.4641C9.72478 42.0933 15.8471 44.3032 21.6953 48.6103C27.5408 52.9154 33.0995 59.306 35.2282 68.2938L35.2644 68.4465H35.4213H45.8953H46.0535L46.0887 68.2922C48.1385 59.3048 53.6178 52.9545 59.4032 48.6895C65.1912 44.4226 71.2738 42.2521 74.4989 41.6228L74.6794 41.5876L74.658 41.4051L72.2775 21.0917L72.2766 21.0838L72.275 21.0759C72.1439 20.4203 72.6693 19.7101 73.5414 19.5648C73.9635 19.4944 74.2995 19.6002 74.5492 19.8166C74.8026 20.0361 74.9836 20.3846 75.058 20.8252L77.5952 42.7089C77.5927 43.1416 77.4467 43.5576 77.1772 43.827C76.9077 44.0966 76.4916 44.2426 76.0588 44.245C75.6831 44.2041 75.0368 44.2814 74.2064 44.4694C73.3585 44.6613 72.2964 44.9739 71.0896 45.4177C68.676 46.3053 65.6761 47.7207 62.6464 49.7538C56.5881 53.8193 50.3953 60.3661 48.5571 70.1147C48.418 70.8079 47.8706 71.2237 47.1649 71.2237H34.1517C33.4457 71.2237 32.8981 70.8076 32.7593 70.1138C30.8409 60.2831 24.3674 53.7764 18.152 49.7324C15.0435 47.7098 11.9952 46.3003 9.60381 45.396C8.40802 44.9439 7.37518 44.6176 6.57974 44.404C5.79313 44.1928 5.21891 44.0863 4.95124 44.0863H4.79255C4.57765 44.0863 4.40743 44.0507 4.25816 43.9844C4.10802 43.9177 3.96892 43.8153 3.82193 43.6683C3.5526 43.399 3.40658 42.9833 3.40397 42.5508L6.09939 20.5118C6.24128 19.8223 6.9378 19.2607 7.62946 19.2502C8.31601 19.3983 8.87267 20.0954 8.87896 20.7856L6.34136 41.245Z" fill="#3F3F3F" stroke="white" stroke-width="0.396745"/>
<path d="M74.8142 42.9762L74.8151 42.9806C75.0659 44.4026 74.4385 46.3604 73.1854 48.5683C71.9257 50.7876 70.0107 53.2997 67.623 55.8466M74.8142 42.9762L67.4782 55.711M74.8142 42.9762C74.7473 42.6419 74.847 42.26 75.0594 41.9591C75.2721 41.6579 75.575 41.4678 75.8892 41.4678H75.9089L75.9281 41.464C76.2624 41.3971 76.6443 41.4968 76.9452 41.7092C77.2465 41.9219 77.4365 42.2248 77.4365 42.539V42.554L77.4388 42.5688C77.8247 45.1158 76.7055 48.0401 75.045 50.7879C73.3891 53.5281 71.2177 56.0555 69.5565 57.7958L69.5564 57.7959C66.392 61.1185 62.4764 64.4405 58.5835 66.9304C54.683 69.4252 50.8352 71.065 47.7997 71.065H47.0266C46.3358 70.9164 45.7763 70.2119 45.7763 69.5177C45.7763 68.8728 46.4352 68.2924 47.313 68.2878M74.8142 42.9762L47.3236 68.0894M67.623 55.8466L67.4782 55.711M67.623 55.8466C67.623 55.8466 67.6231 55.8465 67.6232 55.8464L67.4782 55.711M67.623 55.8466C64.1994 59.5091 60.2183 62.7341 56.5526 64.9853C54.7197 66.1109 52.9618 66.9955 51.3888 67.5691C49.8249 68.1394 48.4266 68.4087 47.313 68.2878M67.4782 55.711C60.6542 63.0111 51.6085 68.5655 47.3236 68.0894M47.313 68.2878C47.3165 68.2878 47.3201 68.2878 47.3236 68.2878V68.0894M47.313 68.2878C47.3092 68.2874 47.3055 68.287 47.3017 68.2866L47.3236 68.0894M11.284 57.6371L11.284 57.6371C9.62276 55.8968 7.45142 53.3694 5.7955 50.6292C4.13601 47.8832 3.01718 44.9607 3.40099 42.4148C3.54445 41.71 4.24747 41.1723 4.91235 41.3053C5.61932 41.4467 6.15957 42.1512 6.02632 42.8175L6.02627 42.8175L6.02548 42.822C5.77494 44.2417 6.36029 46.198 7.59496 48.4084C8.83522 50.6289 10.751 53.1419 13.2194 55.6899C16.7217 59.3514 20.7418 62.5757 24.407 64.8266C26.2396 65.9521 27.9872 66.8365 29.5402 67.4101C31.0888 67.9821 32.4625 68.2521 33.5396 68.1278L33.5478 68.1268L33.5558 68.1252C34.2114 67.9941 34.9216 68.5196 35.0669 69.3916L35.0668 69.3916L35.068 69.3979C35.1992 70.0535 34.6737 70.7636 33.8017 70.909L33.739 70.9194L33.694 70.9644C33.6025 71.0559 33.533 71.065 33.1995 71.065C30.2437 71.065 26.3963 69.4256 22.4552 66.9105C18.5224 64.4006 14.5275 61.0388 11.284 57.6371ZM56.7226 51.7046L56.7227 51.7046L56.7217 51.7005L50.3747 23.139C50.3746 23.1383 50.3744 23.1376 50.3743 23.1369C50.2346 22.4325 50.6618 21.6059 51.4824 21.4692L51.4824 21.4693L51.4887 21.468C52.1935 21.3271 53.0216 21.7543 53.1585 22.5757L53.1582 22.5758L53.1605 22.5861L59.5075 51.1476C59.5077 51.1483 59.5078 51.149 59.5079 51.1497C59.6468 51.8496 59.2258 52.6701 58.4155 52.8147H58.1151C57.409 52.8147 56.8614 52.3985 56.7226 51.7046ZM24.6648 22.4271L24.6649 22.4271L24.6656 22.4233C24.7323 22.0898 24.971 21.7738 25.2953 21.5576C25.6196 21.3414 26.0031 21.2426 26.3366 21.3093C26.6701 21.376 26.9861 21.6147 27.2023 21.939C27.4181 22.2627 27.5169 22.6455 27.4509 22.9785L21.5795 49.6378L21.5795 49.6378L21.5787 49.6415C21.4399 50.3354 20.8924 50.7517 20.1863 50.7517H19.8894C19.5627 50.68 19.2543 50.4442 19.0421 50.1259C18.8262 49.8021 18.7275 49.4194 18.7934 49.0864L24.6648 22.4271Z" fill="#3F3F3F" stroke="white" stroke-width="0.396745"/>
</svg>
