<svg width="80" height="80" viewBox="0 0 80 80" fill="none" xmlns="http://www.w3.org/2000/svg">
<mask id="path-1-inside-1_2276_10724" fill="white">
<path d="M39.999 24.7662C29.6836 24.7662 19.0509 24.1314 6.67242 22.7031C6.19633 22.7031 5.87893 22.3857 5.56154 22.0683C5.24414 21.7509 5.24414 21.2748 5.24414 20.9574C5.40284 19.2118 5.72023 17.3074 5.87893 15.5617C6.03763 13.6573 6.35503 11.9116 6.51372 10.0073C6.67242 9.05509 7.46591 8.42029 8.2594 8.57899C20.0031 9.84857 30.1597 10.4834 39.999 10.4834C49.8383 10.4834 59.9949 9.84857 71.8973 8.57899C72.3734 8.57899 72.6908 8.73769 73.0082 8.89639C73.3256 9.21378 73.4843 9.53118 73.643 10.0073C73.8017 11.753 73.9604 13.6573 74.1191 15.403C74.2778 17.3074 74.5952 19.0531 74.7539 20.9574C74.7539 21.7509 74.2778 22.5444 73.3256 22.7031C60.9471 24.1314 50.4731 24.7662 39.999 24.7662ZM8.5768 19.6878C20.1617 20.9574 30.1597 21.5922 39.999 21.5922C49.8383 21.5922 59.8362 20.9574 71.4212 19.6878C71.2625 18.4183 71.1038 17.1487 70.9451 15.7204C70.7864 14.4508 70.6277 13.1812 70.469 11.7529C59.3602 13.1812 49.5209 13.6573 39.999 13.6573C30.4771 13.6573 20.7965 13.0225 9.52899 11.9116C9.37029 13.1812 9.21159 14.4508 9.05289 15.8791L8.5768 19.6878Z"/>
</mask>
<path d="M39.999 24.7662C29.6836 24.7662 19.0509 24.1314 6.67242 22.7031C6.19633 22.7031 5.87893 22.3857 5.56154 22.0683C5.24414 21.7509 5.24414 21.2748 5.24414 20.9574C5.40284 19.2118 5.72023 17.3074 5.87893 15.5617C6.03763 13.6573 6.35503 11.9116 6.51372 10.0073C6.67242 9.05509 7.46591 8.42029 8.2594 8.57899C20.0031 9.84857 30.1597 10.4834 39.999 10.4834C49.8383 10.4834 59.9949 9.84857 71.8973 8.57899C72.3734 8.57899 72.6908 8.73769 73.0082 8.89639C73.3256 9.21378 73.4843 9.53118 73.643 10.0073C73.8017 11.753 73.9604 13.6573 74.1191 15.403C74.2778 17.3074 74.5952 19.0531 74.7539 20.9574C74.7539 21.7509 74.2778 22.5444 73.3256 22.7031C60.9471 24.1314 50.4731 24.7662 39.999 24.7662ZM8.5768 19.6878C20.1617 20.9574 30.1597 21.5922 39.999 21.5922C49.8383 21.5922 59.8362 20.9574 71.4212 19.6878C71.2625 18.4183 71.1038 17.1487 70.9451 15.7204C70.7864 14.4508 70.6277 13.1812 70.469 11.7529C59.3602 13.1812 49.5209 13.6573 39.999 13.6573C30.4771 13.6573 20.7965 13.0225 9.52899 11.9116C9.37029 13.1812 9.21159 14.4508 9.05289 15.8791L8.5768 19.6878Z" fill="#3F3F3F" stroke="white" stroke-width="0.79349" mask="url(#path-1-inside-1_2276_10724)"/>
<mask id="path-2-inside-2_2276_10724" fill="white">
<path d="M46.6644 71.425H33.6512C32.8577 71.425 32.2229 70.9489 32.0642 70.1554C28.2554 50.6356 6.35513 44.2877 4.45076 44.2877H4.29206C3.81596 44.2877 3.49857 44.129 3.18117 43.8116C2.86378 43.4942 2.70508 43.0181 2.70508 42.542L5.40294 20.483C5.56164 19.6895 6.35513 19.0547 7.14862 19.0547C7.94211 19.2134 8.5769 20.0069 8.5769 20.8004L6.03774 41.2724C12.5444 42.542 30.6359 50.1595 34.9208 68.2511H45.3948C49.521 50.1595 67.4538 42.7007 73.9605 41.4311L71.58 21.1178C71.4213 20.3243 72.0561 19.5308 73.0083 19.3721C73.9605 19.2134 74.5953 19.8482 74.754 20.8004L77.2931 42.7007C77.2931 43.1768 77.1344 43.6529 76.817 43.9703C76.4996 44.2877 76.0235 44.4464 75.5474 44.4464C72.8496 44.129 51.9014 50.7943 48.2514 70.1554C48.0927 70.9489 47.4579 71.425 46.6644 71.425Z"/>
</mask>
<path d="M46.6644 71.425H33.6512C32.8577 71.425 32.2229 70.9489 32.0642 70.1554C28.2554 50.6356 6.35513 44.2877 4.45076 44.2877H4.29206C3.81596 44.2877 3.49857 44.129 3.18117 43.8116C2.86378 43.4942 2.70508 43.0181 2.70508 42.542L5.40294 20.483C5.56164 19.6895 6.35513 19.0547 7.14862 19.0547C7.94211 19.2134 8.5769 20.0069 8.5769 20.8004L6.03774 41.2724C12.5444 42.542 30.6359 50.1595 34.9208 68.2511H45.3948C49.521 50.1595 67.4538 42.7007 73.9605 41.4311L71.58 21.1178C71.4213 20.3243 72.0561 19.5308 73.0083 19.3721C73.9605 19.2134 74.5953 19.8482 74.754 20.8004L77.2931 42.7007C77.2931 43.1768 77.1344 43.6529 76.817 43.9703C76.4996 44.2877 76.0235 44.4464 75.5474 44.4464C72.8496 44.129 51.9014 50.7943 48.2514 70.1554C48.0927 70.9489 47.4579 71.425 46.6644 71.425Z" fill="#3F3F3F" stroke="white" stroke-width="0.79349" mask="url(#path-2-inside-2_2276_10724)"/>
<mask id="path-3-inside-3_2276_10724" fill="white">
<path d="M47.2997 71.2629H46.5062C45.7127 71.1042 45.0779 70.3107 45.0779 69.5172C45.0779 68.7237 45.8714 68.0889 46.8236 68.0889C51.1085 68.565 60.1542 63.0106 66.9782 55.7105C71.7392 50.6321 74.5958 45.7125 74.1197 43.0146C73.961 42.2212 74.5958 41.269 75.3892 41.269C76.1827 41.1103 77.1349 41.7451 77.1349 42.5385C77.9284 47.7756 72.5327 54.4409 69.2 57.9322C62.8521 64.5976 53.4889 71.2629 47.2997 71.2629ZM32.6995 71.2629C26.669 71.2629 17.1471 64.5976 10.6405 57.7736C7.30782 54.2822 1.91209 47.6169 2.70558 42.3798C2.86427 41.5864 3.65776 40.9516 4.45125 41.1103C5.24474 41.269 5.87954 42.0625 5.72084 42.8559C5.24474 45.5538 7.94261 50.4734 12.8622 55.5518C19.845 62.8519 28.8907 68.4063 33.0169 67.9302C33.8104 67.7715 34.6039 68.4063 34.7626 69.3585C34.9213 70.152 34.2865 70.9455 33.3343 71.1042C33.1756 71.2629 33.0169 71.2629 32.6995 71.2629ZM57.6151 53.0126C56.8216 53.0126 56.1868 52.5365 56.0281 51.743L49.6802 23.1774C49.5215 22.3839 49.9976 21.4317 50.9498 21.273C51.7432 21.1143 52.6954 21.5904 52.8541 22.5426L59.202 51.1082C59.3607 51.9017 58.8847 52.8539 57.9325 53.0126H57.6151ZM19.6863 50.9495H19.3689C18.5754 50.7908 17.9406 49.8387 18.0993 49.0452L23.9711 22.3839C24.1298 21.5904 25.082 20.9556 25.8755 21.1143C26.669 21.273 27.3038 22.2252 27.1451 23.0187L21.2732 49.68C21.1145 50.4734 20.4797 50.9495 19.6863 50.9495Z"/>
</mask>
<path d="M47.2997 71.2629H46.5062C45.7127 71.1042 45.0779 70.3107 45.0779 69.5172C45.0779 68.7237 45.8714 68.0889 46.8236 68.0889C51.1085 68.565 60.1542 63.0106 66.9782 55.7105C71.7392 50.6321 74.5958 45.7125 74.1197 43.0146C73.961 42.2212 74.5958 41.269 75.3892 41.269C76.1827 41.1103 77.1349 41.7451 77.1349 42.5385C77.9284 47.7756 72.5327 54.4409 69.2 57.9322C62.8521 64.5976 53.4889 71.2629 47.2997 71.2629ZM32.6995 71.2629C26.669 71.2629 17.1471 64.5976 10.6405 57.7736C7.30782 54.2822 1.91209 47.6169 2.70558 42.3798C2.86427 41.5864 3.65776 40.9516 4.45125 41.1103C5.24474 41.269 5.87954 42.0625 5.72084 42.8559C5.24474 45.5538 7.94261 50.4734 12.8622 55.5518C19.845 62.8519 28.8907 68.4063 33.0169 67.9302C33.8104 67.7715 34.6039 68.4063 34.7626 69.3585C34.9213 70.152 34.2865 70.9455 33.3343 71.1042C33.1756 71.2629 33.0169 71.2629 32.6995 71.2629ZM57.6151 53.0126C56.8216 53.0126 56.1868 52.5365 56.0281 51.743L49.6802 23.1774C49.5215 22.3839 49.9976 21.4317 50.9498 21.273C51.7432 21.1143 52.6954 21.5904 52.8541 22.5426L59.202 51.1082C59.3607 51.9017 58.8847 52.8539 57.9325 53.0126H57.6151ZM19.6863 50.9495H19.3689C18.5754 50.7908 17.9406 49.8387 18.0993 49.0452L23.9711 22.3839C24.1298 21.5904 25.082 20.9556 25.8755 21.1143C26.669 21.273 27.3038 22.2252 27.1451 23.0187L21.2732 49.68C21.1145 50.4734 20.4797 50.9495 19.6863 50.9495Z" fill="#3F3F3F" stroke="white" stroke-width="0.79349" mask="url(#path-3-inside-3_2276_10724)"/>
</svg>
