<svg width="24" height="25" viewBox="0 0 24 25" fill="none" xmlns="http://www.w3.org/2000/svg">
<g clip-path="url(#clip0_171_1940)">
<path d="M18 7.55005C18 10.8583 15.3083 13.55 12 13.55C8.69175 13.55 6 10.8583 6 7.55005C6 4.2418 8.69175 1.55005 12 1.55005C15.3083 1.55005 18 4.2418 18 7.55005ZM8.18025 14.3225C6.41978 15.0717 4.91873 16.3225 3.86419 17.9189C2.80965 19.5153 2.24826 21.3868 2.25 23.3C2.25 23.499 2.32902 23.6897 2.46967 23.8304C2.61033 23.971 2.80109 24.05 3 24.05M21 24.05C21.1989 24.05 21.3897 23.971 21.5303 23.8304C21.671 23.6897 21.75 23.499 21.75 23.3C21.75 19.3835 19.422 15.86 15.8198 14.3225C15.7227 14.2806 15.6178 14.2599 15.5122 14.2619C15.4065 14.2638 15.3024 14.2883 15.207 14.3338C14.2031 14.8033 13.1083 15.0467 12 15.0467C10.8917 15.0467 9.79693 14.8033 8.793 14.3338C8.69758 14.2883 8.59353 14.2638 8.48785 14.2619C8.38216 14.2599 8.27728 14.2806 8.18025 14.3225C6.41978 15.0717 4.91873 16.3225 3.86419 17.9189C2.80965 19.5153 2.24826 21.3868 2.25 23.3C2.25 23.499 2.32902 23.6897 2.46967 23.8304C2.61033 23.971 2.80109 24.05 3 24.05H21Z" fill="#3F3F3F"/>
</g>
<defs>
<clipPath id="clip0_171_1940">
<rect width="24" height="24" fill="white" transform="translate(0 0.799988)"/>
</clipPath>
</defs>
</svg>
