<svg width="16" height="20" viewBox="0 0 16 20" fill="none" xmlns="http://www.w3.org/2000/svg">
<path d="M14.9121 5.48273L14.9124 5.48273C15.1374 5.48171 15.353 5.39186 15.5121 5.23271C15.6713 5.07357 15.7611 4.85802 15.7621 4.63295V4.63273V3.47636L15.7621 3.47614C15.7611 3.25108 15.6713 3.03552 15.5121 2.87638C15.353 2.71724 15.1374 2.62738 14.9124 2.62636H14.9121L1.09395 2.62636L1.09372 2.62637C0.868659 2.62738 0.653105 2.71724 0.493961 2.87638C0.334818 3.03552 0.244962 3.25108 0.243946 3.47614H0.243945V3.47636L0.243945 4.63273L0.243946 4.63295C0.244962 4.85802 0.334818 5.07357 0.493961 5.23271C0.653105 5.39186 0.868659 5.48171 1.09372 5.48273H1.09395L14.9121 5.48273ZM0.94931 3.33173C0.98767 3.29337 1.0397 3.27182 1.09395 3.27182H14.9121C14.939 3.27182 14.9656 3.27711 14.9904 3.28739C15.0152 3.29767 15.0378 3.31274 15.0568 3.33173C15.0758 3.35072 15.0908 3.37327 15.1011 3.39809C15.1114 3.4229 15.1167 3.4495 15.1167 3.47636V4.63273C15.1167 4.65959 15.1114 4.68619 15.1011 4.711C15.0908 4.73582 15.0758 4.75837 15.0568 4.77736C15.0378 4.79636 15.0152 4.81142 14.9904 4.8217C14.9656 4.83198 14.939 4.83727 14.9121 4.83727H1.09395C1.0397 4.83727 0.987669 4.81572 0.94931 4.77736C0.91095 4.739 0.8894 4.68698 0.8894 4.63273V3.47636C0.8894 3.42212 0.91095 3.37009 0.94931 3.33173Z" fill="#3F3F3F" stroke="#3F3F3F" stroke-width="0.1"/>
<path d="M1.23555 4.9403L1.23559 4.94034C1.2659 4.90803 1.30248 4.88223 1.34308 4.86451L1.36308 4.91033L1.34308 4.86451C1.38369 4.84679 1.42748 4.83752 1.47178 4.83727L1.47206 4.83727L14.523 4.83727H14.5232C14.5675 4.83752 14.6113 4.84679 14.6519 4.86451C14.6925 4.88223 14.7291 4.90803 14.7594 4.94034L14.7604 4.94141L14.7604 4.94142C14.7902 4.97512 14.8128 5.01455 14.8268 5.0573C14.8408 5.10004 14.8459 5.1452 14.8419 5.19L14.8418 5.19014L13.6564 17.7752C13.6564 17.7753 13.6564 17.7754 13.6564 17.7755C13.6261 18.1242 13.4658 18.4488 13.2074 18.6848C12.9489 18.921 12.6111 19.0513 12.261 19.05M1.23555 4.9403L12.2611 19M1.23555 4.9403L1.23402 4.9421C1.20498 4.97613 1.18317 5.01572 1.16991 5.05845C1.15667 5.1011 1.15223 5.14599 1.15685 5.1904M1.23555 4.9403L1.15688 5.19067M12.261 19.05L12.2611 19M12.261 19.05H12.2611V19M12.261 19.05H3.7377M12.2611 19H3.73751M3.7377 19.05L3.73751 19M3.7377 19.05H3.73751V19M3.7377 19.05C3.38759 19.0513 3.04979 18.921 2.7913 18.6848C2.53285 18.4487 2.37258 18.1241 2.34226 17.7754C2.34226 17.7754 2.34225 17.7753 2.34225 17.7752L2.39206 17.7709L3.73751 19M1.15688 5.19067L1.2066 5.18545L1.15682 5.19014L1.15685 5.1904M1.15688 5.19067C1.15687 5.19058 1.15686 5.19049 1.15685 5.1904M1.15688 5.19067L1.15685 5.1904M10.9811 3.27215V3.27182H5.01751H5.01729C4.9588 3.27156 4.90148 3.25541 4.85145 3.22509C4.80176 3.19497 4.76112 3.15199 4.73383 3.10071C4.70475 3.05082 4.68943 2.99411 4.68943 2.93636C4.68943 2.87823 4.70495 2.82116 4.7344 2.77103L4.73613 2.76809L4.73623 2.76816L5.63802 1.4482L10.9811 3.27215ZM10.9811 3.27215L10.9869 3.27149M10.9811 3.27215L10.9869 3.27149M10.9869 3.27149C11.0394 3.26543 11.0896 3.24657 11.1331 3.21656C11.1763 3.1868 11.2115 3.14698 11.2358 3.10055M10.9869 3.27149L6.57356 0.950001M6.57356 0.950001L6.57388 0.949999L9.39569 0.95H9.39601V0.950001C9.58062 0.951154 9.76219 0.997089 9.92514 1.08386C10.0881 1.17064 10.2276 1.29566 10.3316 1.4482L11.2333 2.76816L11.2353 2.77098L11.2352 2.77103C11.2646 2.82116 11.2801 2.87823 11.2801 2.93636C11.2801 2.99405 11.2648 3.05071 11.2358 3.10055M6.57356 0.950001C6.38895 0.951154 6.20738 0.997089 6.04443 1.08386C5.88149 1.17063 5.74204 1.29564 5.63805 1.44816L6.57356 0.950001ZM11.2358 3.10055C11.236 3.10016 11.2362 3.09976 11.2365 3.09937L11.1921 3.07636L11.2352 3.10169C11.2354 3.10131 11.2356 3.10093 11.2358 3.10055ZM10.3701 2.62636H5.62193L6.18592 1.81024L6.18592 1.81025L6.18639 1.80956C6.23047 1.74345 6.29024 1.68929 6.36037 1.65193C6.43049 1.61457 6.50878 1.59517 6.58824 1.59545H6.58842L9.41024 1.59545L9.41042 1.59545C9.48988 1.59517 9.56817 1.61457 9.63829 1.65193C9.70842 1.68929 9.76819 1.74345 9.81227 1.80956L9.81259 1.81002L10.3701 2.62636ZM2.98363 17.715L1.83244 5.48273H14.1662L13.015 17.715C13.015 17.7151 13.015 17.7151 13.015 17.7151C12.9964 17.9021 12.9089 18.0754 12.7696 18.2015C12.6303 18.3276 12.4491 18.3974 12.2612 18.3973H3.73751C3.54959 18.3974 3.36837 18.3276 3.22904 18.2015C3.08975 18.0754 3.00229 17.9021 2.98364 17.7152C2.98364 17.7151 2.98363 17.7151 2.98363 17.715Z" fill="#3F3F3F" stroke="#3F3F3F" stroke-width="0.1"/>
<path d="M5.31149 17.0282L5.31149 17.0286L5.31808 17.0278L5.34606 17.0243C5.34625 17.0243 5.34645 17.0242 5.34665 17.0242C5.43138 17.0154 5.5092 16.9734 5.56311 16.9074C5.61716 16.8413 5.64277 16.7564 5.63436 16.6714L5.63434 16.6712L4.64161 7.10756L4.64168 7.10756L4.64125 7.10487C4.62831 7.02351 4.58475 6.95017 4.51948 6.89989C4.45421 6.84962 4.37218 6.8262 4.29021 6.83446C4.20823 6.84271 4.13252 6.882 4.07858 6.94428C4.02464 7.00656 3.99656 7.08711 4.0001 7.16942L4.00001 7.16942L4.00032 7.17243L4.99305 16.7397L4.99307 16.7399C5.00152 16.8186 5.03863 16.8915 5.09735 16.9447C5.15607 16.9979 5.23229 17.0276 5.31149 17.0282ZM7.67642 16.7055L7.67642 16.7061C7.67754 16.7912 7.71183 16.8725 7.77199 16.9326C7.83215 16.9928 7.91342 17.0271 7.99849 17.0282L7.9998 17.0282C8.08487 17.0271 8.16615 16.9928 8.22631 16.9326C8.28647 16.8725 8.32076 16.7912 8.32188 16.7061V16.7055V7.13818C8.32188 7.05259 8.28787 6.9705 8.22735 6.90998C8.16683 6.84946 8.08474 6.81545 7.99915 6.81545C7.91355 6.81545 7.83147 6.84946 7.77094 6.90998C7.71042 6.9705 7.67642 7.05259 7.67642 7.13818L7.67642 16.7055ZM10.6864 17.0282L10.6869 17.0282C10.7675 17.0274 10.8448 16.9964 10.9037 16.9415C10.9625 16.8867 10.9987 16.8119 11.0053 16.7319C11.0053 16.7317 11.0053 16.7315 11.0054 16.7313L11.9978 7.17737C12.0045 7.13442 12.0024 7.09056 11.9916 7.04844C11.9808 7.00586 11.9614 6.96594 11.9346 6.93113C11.9078 6.89632 11.8741 6.86735 11.8357 6.846C11.7973 6.82465 11.7549 6.81137 11.7112 6.80697C11.6675 6.80257 11.6233 6.80714 11.5815 6.82041C11.5396 6.83367 11.5008 6.85536 11.4676 6.88412C11.4344 6.91289 11.4074 6.94813 11.3883 6.9877C11.3694 7.02679 11.3586 7.06929 11.3565 7.11264L10.364 16.6748L10.3639 16.6751C10.3555 16.7601 10.3811 16.8449 10.4352 16.9111C10.4892 16.9772 10.5673 17.0192 10.6522 17.0279L10.6522 17.0282H10.6573L10.6864 17.0282Z" fill="#3F3F3F" stroke="#3F3F3F" stroke-width="0.1"/>
</svg>
