<svg width="40" height="40" viewBox="0 0 40 40" fill="none" xmlns="http://www.w3.org/2000/svg">
<path d="M36.8615 0.289263C36.8186 0.202011 36.7525 0.128671 36.6707 0.0775493C36.5889 0.0264272 36.4946 -0.000434817 36.3985 5.32324e-06H13.1939C13.0978 -0.000434817 13.0035 0.0264272 12.9216 0.0775493C12.8398 0.128671 12.7737 0.202011 12.7309 0.289263L9.71222 6.47337C9.62798 6.56997 9.58141 6.69444 9.58125 6.82341V25.3899C9.1223 25.6708 8.73636 26.0591 8.45574 26.5223C8.17513 26.9855 8.00799 27.5102 7.96833 28.0524C7.67942 28.2759 7.354 28.4461 7.00696 28.5552L7.00533 28.5423C6.95411 28.371 6.85017 28.2209 6.70874 28.1139C6.5673 28.0069 6.3958 27.9486 6.21936 27.9476H0.82314C0.695991 27.9481 0.570679 27.9784 0.456952 28.0361C0.343224 28.0938 0.244147 28.1773 0.167427 28.2801C0.0907073 28.383 0.0384128 28.5024 0.0146115 28.6291C-0.00918978 28.7558 -0.0038563 28.8863 0.0301972 29.0106L2.88131 39.3908C2.93004 39.5661 3.03387 39.7205 3.17704 39.8305C3.3202 39.9404 3.49485 40 3.67443 40H9.38407C9.51253 40.0005 9.63931 39.9704 9.75419 39.9121C9.86907 39.8538 9.96884 39.7689 10.0455 39.6643C10.1221 39.5597 10.1734 39.4384 10.1953 39.31C10.2171 39.1816 10.209 39.0498 10.1714 38.9251L9.42815 36.4535L12.1198 34.7279C12.4665 34.5344 12.8727 34.4815 13.2564 34.58C13.2719 34.5839 13.2876 34.5872 13.3033 34.5897L18.0558 35.3351C19.4213 35.5496 20.817 35.2518 21.9815 34.4976L31.2897 28.4716H39.4835C39.6142 28.4716 39.7396 28.4189 39.832 28.3252C39.9245 28.2314 39.9764 28.1042 39.9764 27.9716V6.99607C40.0161 6.86769 40.0054 6.7287 39.9465 6.60813L36.8615 0.289263ZM25.3385 1.04804H36.0777L38.6374 6.28821H25.3385V1.04804ZM24.796 7.36463C24.8527 7.36453 24.909 7.35494 24.9627 7.33625H28.4383V11.0917H21.4638V7.33625H24.6295C24.6831 7.35493 24.7394 7.36452 24.796 7.36463ZM3.8339 38.952L1.09988 28.9956H6.05093L9.06462 38.952H3.8339ZM21.4256 33.6318C20.4718 34.246 19.3299 34.4865 18.2139 34.308L13.4838 33.5617C12.8474 33.4044 12.1759 33.4973 11.6043 33.8218C11.5963 33.8265 11.5883 33.8306 11.5804 33.8351L9.11275 35.4169L7.3135 29.5459C7.86998 29.3668 8.38307 29.071 8.81939 28.6776C8.87342 28.6323 8.91694 28.5755 8.94686 28.5112C8.97677 28.4469 8.99234 28.3768 8.99246 28.3057C8.99319 27.9934 9.05469 27.6844 9.17342 27.3963C9.29215 27.1082 9.46579 26.8467 9.68437 26.6268C9.90295 26.4069 10.1622 26.233 10.4472 26.1149C10.7322 25.9969 11.0374 25.937 11.3452 25.9389H11.5066C12.0103 25.9361 12.507 25.8195 12.9607 25.5976C13.4144 25.3757 13.8137 25.0541 14.1295 24.6561L16.1763 22.101C16.3736 21.8521 16.6559 21.6875 16.9672 21.6397C17.2785 21.5919 17.5962 21.6645 17.8573 21.843L17.8917 21.8638C18.1582 22.0448 18.3507 22.318 18.4331 22.6324C18.5155 22.9468 18.4822 23.2808 18.3394 23.5721C17.5214 25.2215 16.305 27.6769 16.305 27.6769C16.2655 27.76 16.2468 27.8516 16.2506 27.9437C16.2545 28.0358 16.2807 28.1256 16.327 28.2049C16.3723 28.2832 16.4364 28.3486 16.5132 28.3952C16.59 28.4418 16.6771 28.4681 16.7666 28.4716H29.4249L21.4256 33.6318ZM21.7221 27.4236V22.4192L22.0638 22.7818C22.1119 22.8329 22.1695 22.8736 22.2333 22.9017C22.2972 22.9297 22.3659 22.9445 22.4355 22.9451C22.5049 22.9452 22.5737 22.9314 22.6378 22.9044C22.702 22.8774 22.7602 22.8378 22.8092 22.7879L23.7103 21.8564L24.5996 22.786C24.6478 22.8364 24.7054 22.8764 24.7691 22.9037C24.8328 22.9311 24.9013 22.9452 24.9705 22.9452C25.0396 22.9452 25.1081 22.9311 25.1718 22.9037C25.2355 22.8764 25.2931 22.8364 25.3413 22.786L26.2306 21.8566L27.1314 22.788C27.1801 22.8381 27.2382 22.8778 27.3023 22.9048C27.3664 22.9318 27.4351 22.9456 27.5045 22.9452C27.5713 22.9445 27.6372 22.9296 27.698 22.9015C27.7588 22.8734 27.8131 22.8327 27.8575 22.782L28.18 22.4192V27.4236H21.7221ZM38.9431 27.4236H29.2132V21.1059C29.2171 21.0024 29.1896 20.9003 29.1344 20.8132C29.0792 20.7261 28.999 20.6583 28.9046 20.619C28.8102 20.5796 28.7062 20.5706 28.6066 20.5932C28.507 20.6157 28.4166 20.6687 28.3476 20.7451L27.4898 21.6661L26.5956 20.7537C26.5472 20.706 26.4898 20.6688 26.4267 20.6444C26.3637 20.6199 26.2964 20.6087 26.229 20.6114H26.2276C26.1596 20.6088 26.0918 20.6202 26.0283 20.645C25.9648 20.6698 25.907 20.7075 25.8582 20.7556L24.9714 21.6757L24.0845 20.7594C24.036 20.7107 23.9782 20.6724 23.9147 20.647C23.8512 20.6215 23.7833 20.6094 23.7151 20.6114H23.7137C23.6459 20.6087 23.5784 20.6199 23.515 20.6443C23.4516 20.6688 23.3938 20.706 23.3449 20.7537L22.4481 21.6735L21.5861 20.7487C21.5151 20.672 21.423 20.6187 21.3218 20.5956C21.2206 20.5725 21.1149 20.5807 21.0183 20.6191C20.9217 20.6576 20.8387 20.7245 20.78 20.8113C20.7212 20.898 20.6895 21.0006 20.6888 21.1059V27.4236H17.6043C18.029 26.5502 18.7302 25.1332 19.2623 24.0597C19.5177 23.5387 19.5779 22.9414 19.4318 22.3788C19.2858 21.8161 18.9433 21.3264 18.468 21.0006L18.4336 20.9728C17.96 20.6464 17.3828 20.5124 16.8164 20.5972C16.2499 20.6821 15.7356 20.9797 15.3753 21.431L13.3286 23.9948C13.1094 24.2719 12.8323 24.4961 12.5171 24.6511C12.202 24.8061 11.8568 24.888 11.5066 24.8908H11.3452C11.0995 24.891 10.8545 24.918 10.6145 24.9713V7.33625H13.8004C13.9374 7.33625 14.0688 7.28104 14.1657 7.18277C14.2626 7.0845 14.317 6.95121 14.317 6.81223C14.317 6.67325 14.2626 6.53997 14.1657 6.4417C14.0688 6.34342 13.9374 6.28821 13.8004 6.28821H10.955L13.5146 1.04804H24.3052V6.28821H17.2446C17.1076 6.28821 16.9762 6.34342 16.8793 6.4417C16.7824 6.53997 16.728 6.67325 16.728 6.81223C16.728 6.95121 16.7824 7.0845 16.8793 7.18277C16.9762 7.28104 17.1076 7.33625 17.2446 7.33625H20.4305V11.5969C20.4295 11.7376 20.4827 11.8733 20.579 11.9747C20.6752 12.0762 20.8068 12.1354 20.9455 12.1397H28.9957C29.2809 12.1397 29.4716 11.8865 29.4716 11.5969V7.33625H38.9431V27.4236Z" fill="black"/>
</svg>
