<svg width="20" height="18" viewBox="0 0 20 18" fill="none" xmlns="http://www.w3.org/2000/svg">
<path d="M19.4974 5.36585V5.36742L18.0744 1.9215C18.5273 2.37318 18.8862 2.91011 19.1305 3.50128C19.3747 4.09247 19.4994 4.72619 19.4974 5.36585ZM10.7074 16.8874L10.363 16.5249C10.3617 16.5262 10.3604 16.5274 10.359 16.5287L10.3539 16.5339L10.7074 16.8874ZM9.63581 16.5287L1.92202 8.81492C1.92184 8.81473 1.92166 8.81455 1.92147 8.81437C1.01102 7.89822 0.5 6.65905 0.5 5.36742C0.5 4.07602 1.01084 2.83707 1.92099 1.92097C2.83709 1.01083 4.07603 0.5 5.36742 0.5C6.65859 0.5 7.89731 1.01065 8.81337 1.92048L9.64176 2.75885L9.99742 3.1188L10.3531 2.75885L11.1815 1.92049C12.0975 1.01065 13.3363 0.5 14.6274 0.5C15.919 0.5 17.1582 1.01101 18.0743 1.92145L9.63581 16.5287Z" stroke="#3F3F3F"/>
</svg>
