<svg width="20" height="20" viewBox="0 0 20 20" fill="none" xmlns="http://www.w3.org/2000/svg">
<path d="M10.8498 5.2071L10.8404 5.16911H10.8013H0.625C0.307458 5.16911 0.05 4.91165 0.05 4.59411C0.05 4.27657 0.307458 4.01911 0.625 4.01911H10.8012H10.8404L10.8498 3.98112C11.1251 2.86871 12.1314 2.04146 13.3275 2.04146C14.5236 2.04146 15.53 2.86871 15.8053 3.98112L15.8147 4.01911H15.8538H19.375C19.6925 4.01911 19.95 4.27657 19.95 4.59411C19.95 4.91165 19.6925 5.16911 19.375 5.16911H15.8539H15.8147L15.8053 5.2071C15.53 6.31951 14.5236 7.14673 13.3276 7.14673C12.1315 7.14673 11.1251 6.31951 10.8498 5.2071ZM4.19471 10.6129L4.18531 10.5749H4.14617H0.625C0.307421 10.5749 0.05 10.3174 0.05 9.99989C0.05 9.68235 0.307458 9.42489 0.625 9.42489H4.14613H4.18527L4.19467 9.3869C4.46999 8.27449 5.47632 7.44724 6.67242 7.44724C7.86852 7.44724 8.87485 8.27449 9.15018 9.3869L9.15958 9.42489H9.19871H19.375C19.6925 9.42489 19.95 9.68235 19.95 9.99989C19.95 10.3174 19.6925 10.5749 19.375 10.5749H9.19875H9.15962L9.15022 10.6129C8.87489 11.7253 7.86856 12.5525 6.67246 12.5525C5.47636 12.5525 4.47003 11.7253 4.19471 10.6129ZM15.8053 14.7927L15.8147 14.8307H15.8538H19.375C19.6926 14.8307 19.95 15.0881 19.95 15.4057C19.95 15.7232 19.6925 15.9807 19.375 15.9807H15.8539H15.8147L15.8053 16.0187C15.53 17.1311 14.5237 17.9583 13.3276 17.9583C12.1315 17.9583 11.1252 17.1311 10.8498 16.0187L10.8404 15.9807H10.8013H0.625C0.307458 15.9807 0.05 15.7232 0.05 15.4057C0.05 15.0881 0.307458 14.8307 0.625 14.8307H10.8012H10.8404L10.8498 14.7927C11.1251 13.6803 12.1314 12.853 13.3275 12.853C14.5236 12.853 15.53 13.6803 15.8053 14.7927ZM14.7302 4.59407C14.7302 3.82064 14.1011 3.19146 13.3276 3.19146C12.5541 3.19146 11.9249 3.82064 11.9249 4.59407C11.9249 5.36755 12.5541 5.99673 13.3276 5.99673C14.1011 5.99673 14.7302 5.36755 14.7302 4.59407ZM8.07508 9.99989C8.07508 9.22642 7.4459 8.59724 6.67242 8.59724C5.89895 8.59724 5.26977 9.22642 5.26977 9.99989C5.26977 10.7733 5.89895 11.4025 6.67242 11.4025C7.44589 11.4025 8.07508 10.7733 8.07508 9.99989ZM11.9249 15.4057C11.9249 16.1791 12.5541 16.8083 13.3276 16.8083C14.1011 16.8083 14.7302 16.1791 14.7302 15.4057C14.7302 14.6322 14.1011 14.003 13.3276 14.003C12.5541 14.003 11.9249 14.6322 11.9249 15.4057Z" fill="black" stroke="white" stroke-width="0.1"/>
</svg>
