<svg width="76" height="66" viewBox="0 0 76 66" fill="none" xmlns="http://www.w3.org/2000/svg">
<path d="M69.5389 24.1265L69.5216 24.112L63.7848 19.3309L69.5389 24.1265ZM69.5389 24.1265H69.5614M69.5389 24.1265H69.5614M69.5614 24.1265H74.0887C74.4023 24.1265 74.703 24.251 74.9247 24.4727C75.1464 24.6944 75.2709 24.9951 75.2709 25.3087V57.6642C75.2709 57.9778 75.1464 58.2785 74.9247 58.5002C74.703 58.7219 74.4023 58.8465 74.0887 58.8465H69.5614H69.5389M69.5614 24.1265L69.5389 58.8465M43.7019 2.72575C45.0975 3.65823 46.7386 4.15504 48.4171 4.15312V4.21535H48.4171H60.3998H60.3999C60.5911 4.21515 60.7795 4.26135 60.949 4.34997C61.1184 4.43859 61.2638 4.56698 61.3728 4.72415C61.4817 4.88131 61.5508 5.06255 61.5743 5.25232C61.5978 5.44209 61.5749 5.63473 61.5076 5.81371L61.5076 5.81376L57.004 17.8202L56.9724 17.9042H57.0622H59.8423C61.2826 17.9051 62.6773 18.4098 63.7847 19.3309L43.7019 2.72575ZM43.7019 2.72575C42.0065 1.58688 40.0258 0.945899 37.9846 0.875512M43.7019 2.72575L37.9846 0.875512M69.5389 58.8465L69.5216 58.8609M69.5389 58.8465L69.5216 58.8609M69.5216 58.8609L63.7798 63.642C63.7798 63.642 63.7798 63.642 63.7798 63.642C62.6724 64.5631 61.2777 65.0678 59.8373 65.0687H16.1574C14.717 65.0678 13.3224 64.5631 12.215 63.642L69.5216 58.8609ZM16.1623 62.7042H16.1621C15.274 62.7017 14.4146 62.3885 13.7332 61.8188L16.1623 62.7042ZM16.1623 62.7042H59.8423C60.7298 62.7034 61.5891 62.3924 62.2714 61.825L62.2715 61.8249L67.207 57.712L67.2644 57.6642L67.2069 57.6164L62.2666 53.5098L16.1623 62.7042ZM37.9846 0.875512C35.9434 0.805125 33.9233 1.30815 32.1534 2.32752L37.9846 0.875512ZM12.2149 19.3309C13.3223 18.4098 14.717 17.9051 16.1574 17.9042L12.2149 63.642L6.47807 58.8609L6.46077 58.8465H6.43824H1.91095C1.5974 58.8465 1.2967 58.7219 1.07499 58.5002C0.853281 58.2785 0.728726 57.9778 0.728726 57.6642V25.3087C0.728726 24.9951 0.853281 24.6944 1.07499 24.4727C1.2967 24.251 1.5974 24.1265 1.91095 24.1265H6.43824H6.46077L6.47807 24.112L12.2149 19.3309ZM5.64428 56.482H5.7065V56.4198V26.5531V26.4909H5.64428H3.15539H3.09317V26.5531V56.4198V56.482H3.15539H5.64428ZM17.3956 6.57979H17.3058L17.3373 6.66386L27.604 34.0416L27.6191 34.082H27.6622H32.8217H32.894L32.8832 34.0106L29.3732 10.6167L31.7116 10.262L35.2764 34.029L35.2844 34.082H35.338H40.6617H40.7153L40.7232 34.029L44.288 10.2571L46.6265 10.6117L43.1164 34.0106L43.1057 34.082H43.178H48.3374H48.3806L48.3957 34.0416L58.6624 6.66386L58.6939 6.57979H58.6041L48.4171 6.57979L48.417 6.57979C46.2592 6.58229 44.1493 5.9436 42.3552 4.74481C41.0339 3.85744 39.4904 3.35808 37.8997 3.30335C36.309 3.24862 34.7348 3.64073 33.3556 4.43521L32.1201 5.13942L32.1201 5.13946C30.4696 6.08316 28.6014 6.57964 26.7003 6.57979H17.3956ZM8.79277 57.7121L13.7331 61.8186L62.2665 53.5097C61.585 52.94 60.7257 52.6268 59.8375 52.6242H59.8373H16.1573H16.1572C15.2689 52.6268 14.4095 52.9401 13.7281 53.5098L8.79275 57.6164L8.73524 57.6643L8.79277 57.7121ZM67.8267 55.0601L67.9287 55.1452V55.0123V25.8923V25.8632L67.9063 25.8445L62.2716 21.1543C61.5901 20.5845 60.7308 20.2712 59.8425 20.2687H59.8423H56.1289H56.0858L56.0706 20.3091L50.9373 33.9979L50.9058 34.082H50.9956H55.3598V36.4465H20.6398V34.082H25.0041H25.0939L25.0624 33.9979L19.929 20.3091L19.9139 20.2687H19.8708H16.1573H16.1572C15.2689 20.2712 14.4095 20.5845 13.7281 21.1543L8.09339 25.8395L8.07095 25.8582V25.8874V55.0074V55.1401L8.17298 55.0552L12.2199 51.6865C13.3273 50.7654 14.722 50.2607 16.1623 50.2598H59.8422C61.2832 50.2621 62.678 50.7686 63.7847 51.6914L63.8245 51.6436L63.7847 51.6914L67.8267 55.0601ZM72.8443 56.482H72.9065V56.4198V26.5531V26.4909H72.8443H70.3554H70.2932V26.5531V56.4198V56.482H70.3554H72.8443Z" fill="#3F3F3F" stroke="white" stroke-width="0.124444"/>
</svg>
