<svg width="75" height="60" viewBox="0 0 75 60" fill="none" xmlns="http://www.w3.org/2000/svg">
<path d="M3.46957 3.66545H3.26217V3.87286V24.4398C3.26217 36.4023 9.34767 47.3021 19.5402 53.595L19.5402 53.5951C22.4459 55.3883 25.8803 56.3345 29.4701 56.3345H45.5302C49.1208 56.3345 52.5552 55.3883 55.4601 53.5951L55.3512 53.4186L55.4601 53.595C65.6526 47.3021 71.7381 36.4024 71.7381 24.4398V3.87286V3.66545H71.5307H3.46957ZM45.5302 59.2225H29.4701C25.3397 59.2225 21.3822 58.1254 18.0228 56.052C6.97141 49.2289 0.374399 37.4117 0.374399 24.4398V2.2214C0.374399 1.42368 1.02075 0.777353 1.81828 0.777353H73.1822C73.9798 0.777353 74.6263 1.42371 74.6263 2.2214V24.4398C74.6263 37.4124 68.0291 49.2287 56.9776 56.052C53.6196 58.1253 49.6613 59.2225 45.5302 59.2225Z" fill="#3F3F3F" stroke="white" stroke-width="0.414814"/>
<path d="M50.9203 58.5647L50.9202 58.5648C50.8076 58.5925 50.692 58.6064 50.576 58.6064C50.353 58.6063 50.1332 58.5547 49.9335 58.4556C49.7339 58.3564 49.5599 58.2125 49.4251 58.035C46.8036 54.5785 45.4182 50.4747 45.4182 46.1661C45.4182 35.3153 54.246 26.4877 65.0966 26.4877C67.9681 26.4877 70.7622 27.1117 73.4017 28.3433C73.6832 28.4747 73.9147 28.6934 74.062 28.9668C74.2094 29.2403 74.2646 29.5539 74.2196 29.8612C72.6288 40.722 66.3446 50.2683 56.9773 56.052L57.0863 56.2285L56.9773 56.052C55.1498 57.1805 53.1116 58.0266 50.9203 58.5647ZM51.0797 55.3779L51.1653 55.5073L51.3136 55.4617C52.7998 55.0046 54.1907 54.3789 55.4603 53.595C63.736 48.4852 69.4026 40.1935 71.1543 30.7017L71.1857 30.5318L71.0242 30.4702C69.1177 29.7433 67.1291 29.3756 65.0968 29.3756C55.8386 29.3756 48.3063 36.9079 48.3063 46.1661C48.3063 49.4672 49.262 52.6297 51.0797 55.3779ZM24.0813 58.5648L24.081 58.5647C21.8918 58.0271 19.8542 57.1819 18.0234 56.0527C8.65606 50.2689 2.37183 40.7226 0.780387 29.8613C0.735383 29.5539 0.790645 29.2403 0.937974 28.9669C1.08529 28.6934 1.31681 28.4748 1.59819 28.3433C4.23787 27.1117 7.03203 26.4877 9.904 26.4877C20.755 26.4877 29.5824 35.3155 29.5824 46.1661C29.5824 50.4747 28.197 54.5786 25.5755 58.035C25.4408 58.2126 25.2669 58.3565 25.0673 58.4556C24.8678 58.5548 24.648 58.6063 24.4251 58.6064C24.3103 58.6064 24.1948 58.5929 24.0813 58.5648ZM3.97643 30.4704L3.81499 30.5319L3.84635 30.7018C5.59857 40.1943 11.2653 48.4858 19.5402 53.5952L19.5402 53.5952C20.8111 54.3796 22.2027 55.0048 23.6875 55.4619L23.8358 55.5075L23.9215 55.3781C25.739 52.6305 26.6948 49.4674 26.6948 46.1663C26.6948 36.9081 19.1624 29.3758 9.90417 29.3758C7.87189 29.3756 5.88346 29.7433 3.97643 30.4704ZM3.26217 17.1532V17.3606H3.46957H23.233H23.4404V17.1532V12.2733V12.0659H23.233H3.46957H3.26217V12.2733V17.1532ZM24.8844 20.2485H1.81828C1.02074 20.2485 0.374399 19.6022 0.374399 18.8047V10.622C0.374399 9.82447 1.02077 9.17799 1.81828 9.17799H24.8844C25.6819 9.17799 26.3283 9.82447 26.3283 10.622V18.8047C26.3283 19.6022 25.682 20.2485 24.8844 20.2485Z" fill="#3F3F3F" stroke="white" stroke-width="0.414814"/>
<path d="M51.5602 17.1532V17.3606H51.7676H71.531H71.7384V17.1532V12.2733V12.0659H71.531H51.7676H51.5602V12.2733V17.1532ZM24.8847 23.0849C24.0871 23.0849 23.4408 22.4385 23.4408 21.641V7.78569C23.4408 6.98816 24.0873 6.34181 24.8847 6.34181C25.6822 6.34181 26.3286 6.9883 26.3286 7.78569V21.641C26.3286 22.4385 25.6822 23.0849 24.8847 23.0849ZM73.1823 20.2485H50.1162C49.3186 20.2485 48.6723 19.6022 48.6723 18.8046V10.622C48.6723 9.82446 49.3188 9.17797 50.1162 9.17797H73.1823C73.9798 9.17797 74.6263 9.82448 74.6263 10.622V18.8046C74.6263 19.6022 73.9799 20.2485 73.1823 20.2485Z" fill="#3F3F3F" stroke="white" stroke-width="0.414814"/>
<path d="M51.56 21.641V21.641C51.5602 22.4385 50.9139 23.0849 50.1161 23.0849C49.3186 23.0849 48.6723 22.4385 48.6723 21.641V7.78569C48.6723 6.98816 49.3187 6.34181 50.1161 6.34181C50.9138 6.34181 51.56 6.98828 51.56 7.78569V21.641Z" fill="#3F3F3F" stroke="white" stroke-width="0.414814"/>
</svg>
