<svg width="120" height="120" viewBox="0 0 120 120" fill="none" xmlns="http://www.w3.org/2000/svg">
<g clip-path="url(#clip0_171_1708)">
<path d="M87.7693 65.8737H87.7772L107.831 65.7241C108.61 65.7163 109.24 65.0864 109.24 64.3069C109.24 59.2206 107.264 54.4414 103.666 50.8432C100.068 47.245 95.2885 45.2688 90.2023 45.2688H87.7615C86.982 45.2688 86.3442 45.9066 86.3442 46.686V64.4565C86.3442 64.8344 86.4938 65.1966 86.7615 65.4643C87.0371 65.7241 87.3914 65.8737 87.7693 65.8737ZM89.1866 48.1033H90.2101C94.5405 48.1033 98.6033 49.7882 101.666 52.851C104.39 55.5752 106.028 59.1025 106.351 62.8976L89.1866 63.0314V48.1033Z" fill="#3F3F3F"/>
<path d="M115.665 79.6839H115.626V64.3069C115.626 57.5121 112.98 51.1346 108.177 46.3317C103.375 41.5289 96.9892 38.8834 90.2022 38.8834H82.7933V26.0102C82.7933 25.2308 82.1555 24.593 81.376 24.593H17.3881C16.6086 24.593 15.9709 25.2308 15.9709 26.0102V34.553H1.42065C0.641171 34.553 0.00341797 35.1907 0.00341797 35.9702C0.00341797 36.7497 0.641171 37.3875 1.42065 37.3875H28.8126C29.592 37.3875 30.2298 36.7497 30.2298 35.9702C30.2298 35.1907 29.592 34.553 28.8126 34.553H18.8053V27.4275H79.9667V79.6839H48.9057C47.1972 75.5424 43.1187 72.6214 38.3631 72.6214C33.6075 72.6214 29.529 75.5424 27.8205 79.6839H18.8053V67.0863H27.8677C28.6472 67.0863 29.285 66.4485 29.285 65.6691C29.285 64.8896 28.6472 64.2518 27.8677 64.2518H6.37308C5.5936 64.2518 4.95585 64.8896 4.95585 65.6691C4.95585 66.4485 5.5936 67.0863 6.37308 67.0863H15.9709V79.6839H15.9315C14.7741 79.6839 13.6876 80.1327 12.8687 80.9515C12.0499 81.7704 11.6011 82.8569 11.6011 84.0143C11.6011 86.4 13.5458 88.3447 15.9315 88.3447H27.8205C29.529 92.4862 33.6075 95.4073 38.3631 95.4073C43.1187 95.4073 47.1972 92.4862 48.9057 88.3447H87.2575C88.9661 92.4862 93.0446 95.4073 97.8002 95.4073C102.556 95.4073 106.634 92.4862 108.343 88.3447H115.673C116.83 88.3447 117.917 87.8959 118.736 87.0771C119.555 86.2583 120.003 85.1717 120.003 84.0143C119.996 81.6208 118.051 79.6839 115.665 79.6839ZM82.7933 41.7179H90.2022C102.658 41.7179 112.791 51.8511 112.791 64.3069V79.6839H108.335C106.626 75.5424 102.548 72.6214 97.7923 72.6214C93.0367 72.6214 88.9582 75.5424 87.2497 79.6839H82.7933V41.7179ZM15.9315 85.5103C15.1048 85.5103 14.4355 84.841 14.4355 84.0143C14.4355 83.6128 14.593 83.2348 14.8765 82.9514C15.1599 82.6679 15.53 82.5105 15.9315 82.5105H27.0646C27.0016 82.9986 26.9702 83.5025 26.9702 84.0064C26.9702 84.5103 27.0016 85.0142 27.0646 85.5024H15.9315V85.5103ZM38.3631 92.5728C33.639 92.5728 29.7967 88.7305 29.7967 84.0064C29.7967 79.2823 33.639 75.4401 38.3631 75.4401C43.0872 75.4401 46.9295 79.2823 46.9295 84.0064C46.9295 88.7305 43.0872 92.5728 38.3631 92.5728ZM49.6616 85.5103C49.7246 85.0221 49.7561 84.5182 49.7561 84.0143C49.7561 83.5104 49.7246 83.0065 49.6616 82.5183H86.4938C86.4308 83.0065 86.3993 83.5104 86.3993 84.0143C86.3993 84.5182 86.4308 85.0221 86.4938 85.5103H49.6616ZM97.7923 92.5728C93.0682 92.5728 89.2259 88.7305 89.2259 84.0064C89.2259 79.2823 93.0682 75.4401 97.7923 75.4401C102.516 75.4401 106.359 79.2823 106.359 84.0064C106.359 88.7305 102.516 92.5728 97.7923 92.5728ZM116.72 85.0694C116.437 85.3528 116.059 85.5103 115.665 85.5103H109.099C109.162 85.0221 109.193 84.5182 109.193 84.0143C109.193 83.5104 109.162 83.0065 109.099 82.5183H115.673C116.5 82.5183 117.169 83.1876 117.169 84.0143C117.161 84.408 117.004 84.7859 116.72 85.0694Z" fill="#3F3F3F"/>
<path d="M38.3631 79.3217C35.7727 79.3217 33.6705 81.4239 33.6705 84.0143C33.6705 86.5968 35.7727 88.7069 38.3631 88.7069C40.9535 88.7069 43.0557 86.6047 43.0557 84.0143C43.0557 81.4239 40.9456 79.3217 38.3631 79.3217ZM38.3631 85.8646C37.3396 85.8646 36.505 85.03 36.505 84.0064C36.505 82.9829 37.3396 82.1483 38.3631 82.1483C39.3867 82.1483 40.2212 82.9829 40.2212 84.0064C40.2212 85.0379 39.3867 85.8646 38.3631 85.8646ZM97.7923 79.3217C95.2019 79.3217 93.0997 81.4239 93.0997 84.0143C93.0997 86.5968 95.2019 88.7069 97.7923 88.7069C100.383 88.7069 102.485 86.6047 102.485 84.0143C102.485 81.4239 100.383 79.3217 97.7923 79.3217ZM97.7923 85.8646C96.7687 85.8646 95.9341 85.03 95.9341 84.0064C95.9341 82.9829 96.7687 82.1483 97.7923 82.1483C98.8158 82.1483 99.6504 82.9829 99.6504 84.0064C99.6504 85.0379 98.8158 85.8646 97.7923 85.8646ZM43.2604 37.3874C44.0399 37.3874 44.6777 36.7497 44.6777 35.9702C44.6777 35.1907 44.0399 34.553 43.2604 34.553H35.135C34.3555 34.553 33.7177 35.1907 33.7177 35.9702C33.7177 36.7497 34.3555 37.3874 35.135 37.3874H43.2604ZM16.585 44.45H7.01083C6.23136 44.45 5.5936 45.0877 5.5936 45.8672C5.5936 46.6467 6.23136 47.2844 7.01083 47.2844H16.585C17.3645 47.2844 18.0022 46.6467 18.0022 45.8672C18.0022 45.0877 17.3645 44.45 16.585 44.45ZM21.4902 45.8672C21.4902 46.6467 22.1279 47.2844 22.9074 47.2844H48.8506C49.6301 47.2844 50.2678 46.6467 50.2678 45.8672C50.2678 45.0877 49.6301 44.45 48.8506 44.45H22.9074C22.1201 44.45 21.4902 45.0877 21.4902 45.8672ZM10.0579 55.7721C10.0579 54.9926 9.42012 54.3548 8.64065 54.3548H1.42065C0.641171 54.3548 0.00341797 54.9926 0.00341797 55.7721C0.00341797 56.5515 0.641171 57.1893 1.42065 57.1893H8.64065C9.42012 57.1893 10.0579 56.5515 10.0579 55.7721ZM13.538 55.7721C13.538 56.5515 14.1757 57.1893 14.9552 57.1893H43.2525C44.032 57.1893 44.6698 56.5515 44.6698 55.7721C44.6698 54.9926 44.032 54.3548 43.2525 54.3548H14.9552C14.1757 54.3548 13.538 54.9847 13.538 55.7721ZM34.1823 64.2518C33.4028 64.2518 32.765 64.8896 32.765 65.669C32.765 66.4485 33.4028 67.0863 34.1823 67.0863H48.205C48.9845 67.0863 49.6222 66.4485 49.6222 65.669C49.6222 64.8896 48.9845 64.2518 48.205 64.2518H34.1823Z" fill="#3F3F3F"/>
</g>
<defs>
<clipPath id="clip0_171_1708">
<rect width="120" height="120" fill="white"/>
</clipPath>
</defs>
</svg>
